<mxfile host="Electron" modified="2024-09-23T18:26:43.812Z" agent="Mozilla/5.0 (Macintosh; Intel Mac OS X 10_15_7) AppleWebKit/537.36 (KHTML, like Gecko) draw.io/24.0.4 Chrome/120.0.6099.109 Electron/28.1.0 Safari/537.36" etag="85jPKIq2lMBgTWrb5v0z" version="24.0.4" type="device" pages="2">
  <diagram name="lending club loans pipeline" id="r6rLTd8XL7kVJC2Ku8WR">
    <mxGraphModel dx="3059" dy="2308" grid="0" gridSize="10" guides="1" tooltips="1" connect="1" arrows="1" fold="1" page="1" pageScale="1" pageWidth="827" pageHeight="1169" background="#333333" math="0" shadow="0">
      <root>
        <mxCell id="_rchz5OiN__BkcshjIq5-0" />
        <mxCell id="_rchz5OiN__BkcshjIq5-1" value="pipeline" style="" parent="_rchz5OiN__BkcshjIq5-0" />
        <mxCell id="_rchz5OiN__BkcshjIq5-4" value="&lt;blockquote style=&quot;margin: 0 0 0 40px; border: none; padding: 0px;&quot;&gt;&lt;div style=&quot;&quot;&gt;&lt;span style=&quot;color: rgba(0, 0, 0, 0); font-family: monospace; font-size: 0px; text-wrap: nowrap;&quot;&gt;%3CmxGraphModel%3E%3Croot%3E%3CmxCell%20id%3D%220%22%2F%3E%3CmxCell%20id%3D%221%22%20parent%3D%220%22%2F%3E%3CmxCell%20id%3D%222%22%20value%3D%22Use%20Cases%22%20style%3D%22rounded%3D0%3BarcSize%3D10%3Bdashed%3D1%3BstrokeColor%3D%23F59D56%3BfillColor%3Dnone%3BgradientColor%3Dnone%3BdashPattern%3D8%204%3BstrokeWidth%3D2%3BfontSize%3D24%3BfontColor%3D%23E6E6E6%3Balign%3Dleft%3BverticalAlign%3Dtop%3B%22%20vertex%3D%221%22%20parent%3D%221%22%3E%3CmxGeometry%20x%3D%221432%22%20y%3D%22-34%22%20width%3D%22273%22%20height%3D%22840%22%20as%3D%22geometry%22%2F%3E%3C%2FmxCell%3E%3C%2Froot%3E%3C%2FmxGraphModel%3E&lt;/span&gt;&lt;br&gt;&lt;/div&gt;&lt;/blockquote&gt;" style="rounded=0;whiteSpace=wrap;html=1;align=left;labelPosition=center;verticalLabelPosition=top;verticalAlign=bottom;fillColor=#262A2B;" parent="_rchz5OiN__BkcshjIq5-1" vertex="1">
          <mxGeometry x="10" y="30" width="182" height="766" as="geometry" />
        </mxCell>
        <mxCell id="_rchz5OiN__BkcshjIq5-5" value="&lt;div style=&quot;font-size: 22px;&quot;&gt;&lt;font color=&quot;#99ccff&quot;&gt;Harmonise&lt;/font&gt;&lt;/div&gt;" style="fillColor=none;strokeColor=#147EBA;dashed=1;verticalAlign=top;fontStyle=0;fontColor=#147EBA;whiteSpace=wrap;html=1;rounded=0;strokeWidth=3;" parent="_rchz5OiN__BkcshjIq5-1" vertex="1">
          <mxGeometry x="444" y="38" width="252" height="752" as="geometry" />
        </mxCell>
        <mxCell id="_rchz5OiN__BkcshjIq5-6" value="&lt;b style=&quot;&quot;&gt;&lt;font color=&quot;#e6e6e6&quot; style=&quot;font-size: 36px;&quot;&gt;Project Lending Club Loans&lt;/font&gt;&lt;/b&gt;" style="text;html=1;align=center;verticalAlign=middle;whiteSpace=wrap;rounded=0;" parent="_rchz5OiN__BkcshjIq5-1" vertex="1">
          <mxGeometry x="-1" y="-67" width="496" height="40" as="geometry" />
        </mxCell>
        <mxCell id="_rchz5OiN__BkcshjIq5-9" value="Data Science" style="rounded=0;arcSize=10;dashed=1;strokeColor=#F59D56;fillColor=none;gradientColor=none;dashPattern=8 4;strokeWidth=2;fontSize=24;fontColor=#E6E6E6;align=left;verticalAlign=top;" parent="_rchz5OiN__BkcshjIq5-1" vertex="1">
          <mxGeometry x="1809" y="-9" width="273" height="843" as="geometry" />
        </mxCell>
        <mxCell id="_rchz5OiN__BkcshjIq5-11" value="&lt;div&gt;&lt;font style=&quot;font-size: 18px;&quot;&gt;stage&lt;/font&gt;&lt;/div&gt;&lt;div&gt;&lt;font style=&quot;font-size: 18px;&quot;&gt;_loans&lt;/font&gt;&lt;/div&gt;" style="shape=cylinder3;whiteSpace=wrap;html=1;boundedLbl=1;backgroundOutline=1;size=15;" parent="_rchz5OiN__BkcshjIq5-1" vertex="1">
          <mxGeometry x="339" y="152.5" width="87" height="83" as="geometry" />
        </mxCell>
        <mxCell id="_rchz5OiN__BkcshjIq5-12" value="clean-loan-csv" style="image;aspect=fixed;html=1;points=[];align=center;fontSize=12;image=img/lib/azure2/general/Files.svg;imageBackground=none;" parent="_rchz5OiN__BkcshjIq5-1" vertex="1">
          <mxGeometry x="66" y="154" width="86.86" height="95" as="geometry" />
        </mxCell>
        <mxCell id="_rchz5OiN__BkcshjIq5-17" value="&lt;div&gt;&lt;font style=&quot;font-size: 22px;&quot; color=&quot;#99ccff&quot;&gt;Exploration&lt;/font&gt;&lt;/div&gt;" style="fillColor=none;strokeColor=#147EBA;dashed=1;verticalAlign=top;fontStyle=0;fontColor=#147EBA;whiteSpace=wrap;html=1;rounded=0;strokeWidth=2;" parent="_rchz5OiN__BkcshjIq5-1" vertex="1">
          <mxGeometry x="1400" y="599" width="350" height="198" as="geometry" />
        </mxCell>
        <mxCell id="_rchz5OiN__BkcshjIq5-24" value="&lt;div&gt;&lt;font style=&quot;font-size: 22px;&quot; color=&quot;#99ccff&quot;&gt;Wrangling&lt;/font&gt;&lt;/div&gt;" style="fillColor=none;strokeColor=#147EBA;dashed=1;verticalAlign=top;fontStyle=0;fontColor=#147EBA;whiteSpace=wrap;html=1;rounded=0;strokeWidth=3;" parent="_rchz5OiN__BkcshjIq5-1" vertex="1">
          <mxGeometry x="1400" y="41" width="358" height="249" as="geometry" />
        </mxCell>
        <mxCell id="_rchz5OiN__BkcshjIq5-29" value="" style="endArrow=classic;html=1;rounded=0;strokeColor=#E6E6E6;strokeWidth=3;exitX=1.048;exitY=0.46;exitDx=0;exitDy=0;exitPerimeter=0;" parent="_rchz5OiN__BkcshjIq5-1" source="xl436nRehyLvYvSucoG5-8" target="_rchz5OiN__BkcshjIq5-11" edge="1">
          <mxGeometry width="50" height="50" relative="1" as="geometry">
            <mxPoint x="-142" y="317" as="sourcePoint" />
            <mxPoint x="312" y="165" as="targetPoint" />
          </mxGeometry>
        </mxCell>
        <mxCell id="_rchz5OiN__BkcshjIq5-36" value="&lt;font color=&quot;#99ccff&quot;&gt;&lt;span style=&quot;font-size: 18px;&quot;&gt;Data Science / ML&lt;/span&gt;&lt;/font&gt;" style="fillColor=none;strokeColor=#147EBA;dashed=1;verticalAlign=top;fontStyle=0;fontColor=#147EBA;whiteSpace=wrap;html=1;rounded=0;strokeWidth=2;" parent="_rchz5OiN__BkcshjIq5-1" vertex="1">
          <mxGeometry x="1838" y="33" width="213" height="749" as="geometry" />
        </mxCell>
        <mxCell id="_rchz5OiN__BkcshjIq5-53" value="Staging Area" style="rounded=0;arcSize=10;dashed=1;strokeColor=#F59D56;fillColor=none;gradientColor=none;dashPattern=8 4;strokeWidth=2;fontSize=24;fontColor=#E6E6E6;align=left;verticalAlign=top;" parent="_rchz5OiN__BkcshjIq5-1" vertex="1">
          <mxGeometry x="4" y="-10" width="197" height="840" as="geometry" />
        </mxCell>
        <mxCell id="xl436nRehyLvYvSucoG5-0" value="" style="endArrow=classic;html=1;rounded=0;strokeColor=#E6E6E6;strokeWidth=3;exitX=1;exitY=0.5;exitDx=0;exitDy=0;exitPerimeter=0;entryX=0;entryY=0;entryDx=0;entryDy=54.75;entryPerimeter=0;" parent="_rchz5OiN__BkcshjIq5-1" target="xl436nRehyLvYvSucoG5-12" edge="1" source="xl436nRehyLvYvSucoG5-11">
          <mxGeometry width="50" height="50" relative="1" as="geometry">
            <mxPoint x="571.5" y="196.5" as="sourcePoint" />
            <mxPoint x="608" y="193.5" as="targetPoint" />
          </mxGeometry>
        </mxCell>
        <mxCell id="xl436nRehyLvYvSucoG5-7" value="" style="endArrow=classic;html=1;rounded=0;strokeColor=#E6E6E6;strokeWidth=3;exitX=1.048;exitY=0.46;exitDx=0;exitDy=0;exitPerimeter=0;" parent="_rchz5OiN__BkcshjIq5-1" source="_rchz5OiN__BkcshjIq5-12" target="xl436nRehyLvYvSucoG5-8" edge="1">
          <mxGeometry width="50" height="50" relative="1" as="geometry">
            <mxPoint x="157" y="198" as="sourcePoint" />
            <mxPoint x="369" y="196" as="targetPoint" />
          </mxGeometry>
        </mxCell>
        <mxCell id="xl436nRehyLvYvSucoG5-8" value="&lt;font color=&quot;#e6e6e6&quot;&gt;SQL1&lt;/font&gt;" style="verticalLabelPosition=bottom;html=1;verticalAlign=top;align=center;strokeColor=none;fillColor=#00BEF2;shape=mxgraph.azure.script_file;pointerEvents=1;" parent="_rchz5OiN__BkcshjIq5-1" vertex="1">
          <mxGeometry x="257.25" y="171" width="47.5" height="50" as="geometry" />
        </mxCell>
        <mxCell id="xl436nRehyLvYvSucoG5-11" value="&lt;font color=&quot;#e6e6e6&quot;&gt;Cleaning&lt;/font&gt;&lt;div&gt;&lt;font color=&quot;#e6e6e6&quot;&gt;SQL&lt;/font&gt;&lt;/div&gt;" style="verticalLabelPosition=bottom;html=1;verticalAlign=top;align=center;strokeColor=none;fillColor=#00BEF2;shape=mxgraph.azure.script_file;pointerEvents=1;" parent="_rchz5OiN__BkcshjIq5-1" vertex="1">
          <mxGeometry x="477" y="169.5" width="47.5" height="50" as="geometry" />
        </mxCell>
        <mxCell id="xl436nRehyLvYvSucoG5-12" value="&lt;div&gt;&lt;font style=&quot;font-size: 18px;&quot;&gt;Clean&lt;/font&gt;&lt;/div&gt;&lt;div&gt;&lt;font style=&quot;font-size: 18px;&quot;&gt;Loans&lt;/font&gt;&lt;/div&gt;" style="shape=cylinder3;whiteSpace=wrap;html=1;boundedLbl=1;backgroundOutline=1;size=15;" parent="_rchz5OiN__BkcshjIq5-1" vertex="1">
          <mxGeometry x="586" y="142" width="87" height="83" as="geometry" />
        </mxCell>
        <mxCell id="xl436nRehyLvYvSucoG5-13" value="" style="endArrow=classic;html=1;rounded=0;strokeColor=#E6E6E6;strokeWidth=3;entryX=0;entryY=0.5;entryDx=0;entryDy=0;entryPerimeter=0;exitX=1;exitY=0.5;exitDx=0;exitDy=0;exitPerimeter=0;" parent="_rchz5OiN__BkcshjIq5-1" source="_rchz5OiN__BkcshjIq5-11" target="xl436nRehyLvYvSucoG5-11" edge="1">
          <mxGeometry width="50" height="50" relative="1" as="geometry">
            <mxPoint x="465" y="203" as="sourcePoint" />
            <mxPoint x="291" y="206" as="targetPoint" />
          </mxGeometry>
        </mxCell>
        <mxCell id="xl436nRehyLvYvSucoG5-16" value="Data WranglingÂ " style="rounded=0;arcSize=10;dashed=1;strokeColor=#F59D56;fillColor=none;gradientColor=none;dashPattern=8 4;strokeWidth=2;fontSize=24;fontColor=#E6E6E6;align=left;verticalAlign=top;" parent="_rchz5OiN__BkcshjIq5-1" vertex="1">
          <mxGeometry x="1332" y="-5" width="442" height="566" as="geometry" />
        </mxCell>
        <mxCell id="xl436nRehyLvYvSucoG5-17" value="&lt;div&gt;Python wrangling&lt;/div&gt;" style="html=1;whiteSpace=wrap;strokeColor=none;fillColor=#0079D6;labelPosition=center;verticalLabelPosition=middle;verticalAlign=top;align=center;fontSize=12;outlineConnect=0;spacingTop=-6;fontColor=#FFFFFF;sketch=0;shape=mxgraph.sitemap.script;" parent="_rchz5OiN__BkcshjIq5-1" vertex="1">
          <mxGeometry x="1425" y="142" width="120" height="70" as="geometry" />
        </mxCell>
        <mxCell id="Zv2KJzAXO4pKRZKgi-da-21" style="edgeStyle=orthogonalEdgeStyle;rounded=0;orthogonalLoop=1;jettySize=auto;html=1;" edge="1" parent="_rchz5OiN__BkcshjIq5-1" source="xl436nRehyLvYvSucoG5-18" target="xl436nRehyLvYvSucoG5-17">
          <mxGeometry relative="1" as="geometry" />
        </mxCell>
        <mxCell id="xl436nRehyLvYvSucoG5-18" value="&lt;div&gt;&lt;span style=&quot;font-size: 18px;&quot;&gt;wrangled&lt;/span&gt;&lt;/div&gt;&lt;div&gt;&lt;span style=&quot;font-size: 18px;&quot;&gt;_loans&lt;/span&gt;&lt;/div&gt;" style="shape=cylinder3;whiteSpace=wrap;html=1;boundedLbl=1;backgroundOutline=1;size=15;" parent="_rchz5OiN__BkcshjIq5-1" vertex="1">
          <mxGeometry x="1606" y="136.5" width="87" height="83" as="geometry" />
        </mxCell>
        <mxCell id="xl436nRehyLvYvSucoG5-19" value="" style="endArrow=classic;html=1;rounded=0;strokeColor=#E6E6E6;strokeWidth=3;exitX=1;exitY=0.5;exitDx=0;exitDy=0;entryX=0;entryY=0.5;entryDx=0;entryDy=0;entryPerimeter=0;exitPerimeter=0;" parent="_rchz5OiN__BkcshjIq5-1" source="xl436nRehyLvYvSucoG5-17" target="xl436nRehyLvYvSucoG5-18" edge="1">
          <mxGeometry width="50" height="50" relative="1" as="geometry">
            <mxPoint x="1198" y="-99.00000000000023" as="sourcePoint" />
            <mxPoint x="1275" y="-97.8900000000001" as="targetPoint" />
          </mxGeometry>
        </mxCell>
        <mxCell id="xl436nRehyLvYvSucoG5-20" value="" style="endArrow=classic;html=1;rounded=0;strokeColor=#E6E6E6;strokeWidth=3;exitX=1;exitY=0.5;exitDx=0;exitDy=0;exitPerimeter=0;entryX=0;entryY=0.5;entryDx=0;entryDy=0;entryPerimeter=0;" parent="_rchz5OiN__BkcshjIq5-1" source="Zv2KJzAXO4pKRZKgi-da-0" target="Zv2KJzAXO4pKRZKgi-da-17" edge="1">
          <mxGeometry width="50" height="50" relative="1" as="geometry">
            <mxPoint x="624" y="-73" as="sourcePoint" />
            <mxPoint x="1073" y="208" as="targetPoint" />
          </mxGeometry>
        </mxCell>
        <mxCell id="xl436nRehyLvYvSucoG5-21" value="" style="shape=image;verticalLabelPosition=bottom;labelBackgroundColor=default;verticalAlign=top;aspect=fixed;imageAspect=0;image=data:image/png,iVBORw0KGgoAAAANSUhEUgAAAPMAAAA1CAYAAACUR92WAAABXmlDQ1BJQ0MgUHJvZmlsZQAAKJFtkL9LQlEcxY9lWFrQL2oo4m2RvKSeQlOBOUTQ8LCibHs+TcsfXZ4vIojW1qbaI/oLAhscGoIg2oKKaGxoD1xKXudqpVYXLt8Ph/P93u89QEu7IUTWDSCXt63o3KyyGltTPK/owAC6MAWfYRZEWNcXaMF3bT7le7hkvRuXs6YHH6/6/P7rkSF9/7x0MvnX33S8iWTBZP3gDZjCsgGXStZ3bCF5j9xvcSnyoeRUjU8lx2t8UfUsRSPkW3K3mTYS5GeyGm/QUw2cy26bXzvI7TuT+eVF1l7eYYRhIgkLCqLQmMIE8/nfH6r6I9iCwC47NpBCGjY7w1QEspyjYB55TgxAJWucpiEkc/6dX11LHABBP5/y1rXNF6B0DPTc1LXRDL8yA1zGhGEZP6m6yu7CelCrsa8ItB05ztsK4BkDKg+O8150nMoZ0PrE3vInJHJhYoF6OHsAAABWZVhJZk1NACoAAAAIAAGHaQAEAAAAAQAAABoAAAAAAAOShgAHAAAAEgAAAESgAgAEAAAAAQAAAPOgAwAEAAAAAQAAADUAAAAAQVNDSUkAAABTY3JlZW5zaG90TD2eRwAAAdVpVFh0WE1MOmNvbS5hZG9iZS54bXAAAAAAADx4OnhtcG1ldGEgeG1sbnM6eD0iYWRvYmU6bnM6bWV0YS8iIHg6eG1wdGs9IlhNUCBDb3JlIDYuMC4wIj4KICAgPHJkZjpSREYgeG1sbnM6cmRmPSJodHRwOi8vd3d3LnczLm9yZy8xOTk5LzAyLzIyLXJkZi1zeW50YXgtbnMjIj4KICAgICAgPHJkZjpEZXNjcmlwdGlvbiByZGY6YWJvdXQ9IiIKICAgICAgICAgICAgeG1sbnM6ZXhpZj0iaHR0cDovL25zLmFkb2JlLmNvbS9leGlmLzEuMC8iPgogICAgICAgICA8ZXhpZjpQaXhlbFlEaW1lbnNpb24+NTM8L2V4aWY6UGl4ZWxZRGltZW5zaW9uPgogICAgICAgICA8ZXhpZjpQaXhlbFhEaW1lbnNpb24+MjQzPC9leGlmOlBpeGVsWERpbWVuc2lvbj4KICAgICAgICAgPGV4aWY6VXNlckNvbW1lbnQ+U2NyZWVuc2hvdDwvZXhpZjpVc2VyQ29tbWVudD4KICAgICAgPC9yZGY6RGVzY3JpcHRpb24+CiAgIDwvcmRmOlJERj4KPC94OnhtcG1ldGE+CocXVjwAABkzSURBVHgB7V0LmE1V+3/3OWcGuY5LKGKMawqJkhSVWyGRrnr8kb4uVERJ+mrk1uWpvu6EP0KoHpMovlSmlNyJkkuGVAwlcjcz5+zv/a2ZdWbtffY5Z5/bYOz3mTN777XX9d3rXe9lvWstbc2aNfqff/5JF198MZ1//vkUEfi8RMePkL5jHfmWzSXf1hWk5+aS5nETuZKMWfnySPfmkZZUgtxN25PW9i7SqqcRlSrLcV3GuAVPr7/+Bu3cudPwzuv1Us+ePahdu3aGcOfBwcC5igG3201JSUmk9e3XTwcSdF2nLjfdRN26dbOFE1/mHPIufoco9yRpPh+RpnE6/OwAF8nl6W4PUZlK5Ok5jLQm7QIS+jjf5cuX05w5PFDoPipXtiwNGDCA0tLSuDi7ZQVk6wQ4GCh2GChRogRp/fr3F8SM1pUuXZpefOGF4IRy4gj5FrxOvnVLiE4eZY7KHDgewFybylcjV6vu5OrQl8iTbMgVRH3y5EkqVapU8LoZUjgPDgbOLQx4PB5i1lgIeXlMVEHAt2I+eTNeJS33RH6MeBEycnNxNY78Rb7/vku+VQvI3WOogVO7WAw/77zzgtTMCXYwEIiBrKws+umnn2jTpk107NgxGjt2bGCkYhQChucnZojZ5cuVC+R8Rw6Sd8pj5Mv6gXVhkx4cb2RggPhnP+VNGUruK7qR6/YRRKxjO+BgwC4GcnJy6M4776TDhw8TRE8A7EHFHUC/rlMsvuacOkUVypWn9PR0Q5v17CzKHXIV6bs3J56QlZI11qV9axdR3hPXMMc+qLxxbh0MhMcAJMySJUsGMqbwSc/aGCBmz5tvvklovFmM1X9cRt6pj5PGRB4NwHLNVq6CpBqBQCMGNnLlju5Onkcnk3Zh/YiTOwkcDJxLGPDAqGQG39rF5J09ijSm9qDAMrruzSGtZFkmtAZElWsQpVQjLaUqG7DYTF6CdVx3Euk8faV5c0k/xbo2CPxgNul/7yHat5P07B0cztZwiO9BdHAt7xR533yA3EOmknZ+raDVcV44GDjXMRDILrN3knfO6PzpJhU7TNg6W521lOpE1euRq0ErcjW6gqhqHTVWwL2cQJJXNUIuz0l79mWR/tO35Nu+hmjPNtKPHWQubtLNTx2jvJd6U9KzC3kqq4KahXPvYMDBQAEGDMTsO/w35Y3qSq5SZQoRxByYktmQULMxeW57krRqqYXvYrzDRDfVaEAa/1yd7s3PbccGypv3Iun7dxO4Mmn5DiUaSwF5z3Ulz9gvHaNYjHi3Sg6dCxZRAJwQHLCPAYk3zLoUNaBsWa6BmL0THzEQsp7HnLP/S6Q1blN0BJTWjDzDZhHlnCRf5vvkXfgae41BFWDenpfDjiqTyN1tUFHjrNiWt2rVKnr//ffp119/FVM4IOSKFSvSNddcQ7169aLKlSuf9W3HHGy8Ye/evbTgkwW0ctVK+vvvv0X2wBss5126dKGGDRvGu0hDfl9//TV98OGHlM31gNX+tdeYTk6cOCEUY9/K+eSbPTpfd+VR2nXbCHJd1oHdLRUubciuiB7Ymo25Z+88HlRYD4cO7nloAmn1WyS8Ao8//jj9/PPP/nIw7YGOH66Dj0ofRatWr/JbU+GCOmPGjLDp/AUV3IwY8RRt3MhTggXebhiFx48fT02bNjVHNTxPnDiRPv74Y/+IjXnWL774gtRO/eKLL9Lq1avpyJEjghPLMpARuLT8Va9ene6//3668sorDWVYPQwaNIh27dpleIWO/eCDDxrC7DzAKNu9+y3c9sLYaP/zzz9PTZo08Qd+//339Nxzz0UtTVStWpWmTJnizy/czRtvvEEoEwQMjgi8SdxJnOFajqd5r2zVigY+9JB/iixc3nj/0ksv0dKlS/3fDjatD5loJWTMy6DZc2aL7ybLP378uOhf+XLBqePknf8Gx+eKNetAntFLyNW6x+knZLSgbAq5buhDnvTPSKvTXDiMeue/ijcJByk+yYLwkexAUrJJ57eTyCJOyZL586TyFT6enTrImQnZ0XDFBwds2bKF7rjjDsrMzCQeyAWBy84oy8EzygKX3r9/Pz399NOikyF+KOjatSvBDqLCV199pT7avv/99985rxxD/OTkZKpXr54hLNYHc9uD5bdm9Rq6++676bPPPhNz2BgYJTHJNCrexAC6ZAlhgMvakSWjhL2mVEgxfGPkIwGD9ISJE8S3xLeRdUc9AOK/d+FbLNYeJ9ed/yZ3nzFsZIpuOkoWmoirVqUmuQe9Q64O95L++xbS17NLqQOWGECnNwM43caNGwWXRQeRHQBSA34A9V5NDzEO3AJeVKfYJyEYdO7cmcqXN/YdcP6lPHBECuvWrSO1HRhYGzRoIFx6zXmpHDHYYGeOI5/NeVk9Z7JIO/LpkYKIpT0B9YHNB5JLrVq1qHbt2oIbI1zWATiGOD78yeHiapW3Oax0mdKGIDmAZmRk0Lx580SZhgjKg4flViaMpeR5YvZZMfXj6vIgc+hmbHEfT55m7VmYUOQwpWHn8i04s+xQEg9YGTd06FAqy4tVAHgPx4p77rmH2rZtK/TkQ4cOCRFy8uTJwhdejvyIj44JAnv55ZfpqaeeQpAltG/fnj755BP/O3CwhQsW0HXt2vnDwt2gbhmsJqgAIhk8eLAaJO7LlClDl156KdtJ87kT0v68ebMhHvCRllaXvFjlZ4KqYVYKrlixgsaMHi1wJZOijNtvv13gTlVd8H7r1q307LPPCjFY4g8E+eijj/KCoTn+QVTmZb5CPFcBaxKg3oErC4Mxv0T5Mm85KOPZo2fOJs+QSUSVLlTzOKPvtUZXkbsvSxBH2PBQrtIZXdfTUTkpZsuyQbSjuUNK98ajR48KooTurXbGChUq0I033kidOnUStoLhw4fLLMQVHeebb74hiNOq3qpGAjGj06p1MC9jVeNb3W/fvp327tljIKA6deoILmiOD0KGnikBHR+GOxA/AB0fnHP8+HEyiu3rP//8I/AG/ElAu959910CrqwA0sN7770n0mHwk0QHnEP3hYoTCiTByjiQBMaNG+e3CUDC6tixI/Xp00fgGO8hUaGOLq1557OKkGUjtVQ2grBU4UAgBkC06MQS8MHBdSXMmjWLLr/8cgMhy3e4gmgbN25MEyZMCOAkIP4xY8YIbqGmkfcgOjOhgzOp3FrGDXaFpVYOPIgDwmzZsmWw6AkLf/VVo20GhPQCGw6DEbKsCNQD2BnUAQ04BXc9ePCgjGZ5NX87SFIbNmwQgwK+IwygQ4YMEcZU5I/4uCJ/F5U/izlb+SqWCDnXA82ju8QHPvhbb71FF15oTwqrUaMGPfPMM8LdV+aBK3TuXSartfr+rrvuChhMwK1ADHZA5WiIj3Tdu3e3kzRucWD44407/JwVg+PAgQMplXVjOwAig7gt7RFIA+4Ju0UoAMGqgGe0H/k8/MgjdNlll/nrpMbDfb6iYQ51nosdBtAZMb0EkTMSaNGiBV100UUG4oToOHnS5KDZgKurVlhEhO534MCBoGnki3379tGOHTvko7hee+21Qqc3BCb4AaK0Kt1AfL/++usjKvWSSy6hKlUKGQ4G00WLFoXMA3GsoBVPc7W/4QarV/4w65T+187N2YgBK84MK/R9990XVXMg2pkBzhLQKa0ARinohlJvRRwQRriOjHhQAdT6gyO1u+46vCoyAOFK0RaFou7Qw7F5R6RwwQUXGJJ89913QVUUQ0TlAfWxswOQQ8wK0orLrXmuF+2qWbNm5Hu8FSAE000gUBUgMv7xxx9qkOG+b9++vN6mcL4d3ByECg4dCn74odBJBvEwIFzevHmoJHF/Bx3fPAV36623RlUOnFJUDg/xG952kQDSmO0QVunj7+dmVYoTdtoxULdu3ajrAKMXjD6q6IwwiMTBFv6D2M9nETM7O9tfLvS/H3/8kSC6WwEcW1RRHEQARw2rlX1W6eMVhh1KIBFIkReSAogb7Y0UUHe0Q1q1gQPp/mk3L/OsQ7B0DjEHw0wxCw9ngQ3X3EaNLqbffvvN38HRObGbRzDAe3BnTIlJsRkDQCY7kAQj5kmTJglOLIkIRIBpsqIGs3QAAxSmglQOa7dOsGyj3RLyiTm0RVvGlVe7dg5HzJYYK+ZXyRmibWaNGhcGdGaVU1vl26ZNG6picsr48ssvA1w+kRZ64dy5c/2DBcJA1BFv/4yEMQL2DzMDOCymgCL9qYQs82TPd3lr65qSkmIrnkPMttDkRFJdKyU27AwQba6+WkYXV3A3qznn3bt3G1xBwQ3htCK5tCGTBD/ABdVO26KpBtqFvfYSAYX8PxG5O3kWGwwcP5a/UENtEAwz4eAm3osdnk9S7wWngkXXbFBCGERQCXBrxDLM0wEe08aVUBOeeOIJ2/PkoeqMwQxTVokAh5gTgFXVUUBmb2Vhlu/OhuuuX3cFcCvp5x2q/pijhrfZZsVfGv7L0LelHzJEbCwikIAOX79+fflY5NeKLNbu3Jnlby+4NJw1YNQ7k8ERsxPwdTy8eaFZTIPoFilYDQqR5iHjQ7yLBeAvrYq8qFu4dd2yPNVXGmGYbsK6cAlYMy5XByEMdcVChtMFddLqGIpGfc6GwdghZsNni89DCV6HrFo+Qdh7eOFApPBPCGtxpHnBPTFaQGc2D0bgplj+ZwcgVsr11IgPcRpLKuVghd1OVJ0c+dqZV7VTdjRxYG1Xvx/aH+nccDTlxprGIeZYMWiRHitnVAAxf/vtt2pQ2Htwgi3MscwcPmzCIBHAWaMFELLZcg1vKDhE2AFYgPv3728gEBC35MZr1641ZHNDGLdFQ+QEPGAqSNXf8Q3eeeedBJQU3ywdYo4vPkVucNBQR3Z0BnCiSEQ1cFIrQrYKs9MErJpCHaIBLLZQAW0DcUZSl5tvvjlATMdySrTzl19+8WcPIr8uRvdNVR1AHcOtVPIXXnADY53quok8oOdHupTTnG+inx1iTgCGoUuqHQpFwIprXkAQrGgQ/SuvvGJwNkBciKVqJwuW3iocFtlI9rqSecBHGR1ZJVy0LVKCg7FLnTNGHjNmzBTb8EinEpQJYxlWa8UCWsGOrjIPqDhSpJdhoa74VvAtV9PA+PX222/HxaIdquxY3jnEHAv2gqSFlddMzOiwWH5o9vk1ZwHj0LRp0wwbCZrjRPsMN8LBg4fYlhDgijly5EiDPov6YUMA8/ZA4eoEfDz88MMGYjhw4C9awvtkSZEWHB/um7EAyklKMk7SYHCE91ok0KNHjwADH9w8scY5EgkrkjJjjes6q89yOhDc0T9WxMSSHsYczKOqIzvyg5iGnSRDARaeY78nORjIK9LITh8qfah3yGv79m3CNdGsA5vToa5WojT0X+x8EQ00a9aMqlWr5k8KPKkrrzBdFeuUFHCkGtNQGObDZ86c6S/X7s0jvH5Y6vVIA/xlZmaSeb22nfwwmKiql500kcbx6HtYXynBh2zVvjTStKc1Ps7CSnSdYyEe7K21ePHiACvw+vXrxbQLuBvWF0P8xE6Uy5YtExZTjProNPjw2IsLe0eplmC1c0XyAWDUgbgMcRFEg/qBcMCBsFhChmMb2fnz54sN6NSBBGVBqoj1aFRYirEUUhXbkTc4PogkWjUCeQCQb9tr29K8jHmGwW/58uV07733UqeOnaha9WrCoAd8YAueYItFsLvJgAEDxDZAsi8gf6z8wtZJUAewxhlrjaFCQNeGlR8DJUR7bGUMS/1ff/0lwrD9sapS5Nc4fv89WoOWlDe6B7luHkiupu3jl3MCc/J9PYfw8zyTkcBS8nXUaAvAx8d+0ej86gcEgYA4sVEcOhiIFh1E7SyYCnnggQfE1I+aFnUxc3u79cNUDzou9D7kiUEDK5igEwNQB9QF9UNd8KwCCBlb4YTbs1tNY3Xfs2dPWsAb/JnbhWcQTjyg9z296fMlnwdwVagN06ZPEwMHykF7sZFCMGJGHMx3g3ixr5laZ+AHS0CnT58uBl35/WS+yBu6txwQ8Yz59EROuQmd2XVlN/JOGkq+xZPRRNTnzAQ+0cI3Zyx5PxhD7juwQ6Sxw8W70rk5uYYs5YcxBIZ4wA4Z2GrGigAlAeODy46ADw4REdz4lltuETnjvQrh1gOrcdV71AFb72D1D7ggykId0EHxQzm4yrrItEhXqWIlwmmh2MUzVsBifasBoXbt2gHicbRlQRXAxv1opwpoL74h2oofnrHRXigAPvr160ePPfaYkKLM3xL5QYyXeUo84juq/QV1gcSTSMgn5o48zcD7Uvv+O5HyRnYk/UzTRbEd8N4dlPvYVeRbySc1XHwtaQ2uSCReRN45pk3YERipSx+mZDBHKf2YQUT4SZDP6FjYm2vq1Klih0z53qz/RTrNIvOR1969e4vTD6qy7ooyJWHL97I+CAdx33bbbTT9veliz2oZJ9ZramqqIQuIptGcemHIxPSAXUIxIwBiDNZGtD87294aZSzFhNcarNzym8h8rb6nxCMIGuI3ODwkm3CAOpnBKswcB8+Fx9NsZI+cSYP5XKeS3Nl4YXazTuT+v7FWaYo27CSfADl5GOm/rOa9kd18BOxxSnqaR7jqdRJeD3wAVV/Fx/v0008DRFA7FcGIDt0JujH0UizCT+YRvTbrstC74CUFfdH84cA5UK4EDApyYJBh5uvKlSvFRnwgRglY8PAQH5UiAXnC+IRN6zD/fJDnofk8E95rK4Wa884eWOQAi7XsuDJdPK6QEFQOl5aWJs5Kikfe5jwwUOzatUsYFeXOKBiQGzVqJPAOg1w4fJrzhBoEvRing6xft55+4T3LcnLyDwdISkqmmqxLN2jYQFj9sXwR5ZklHnOe8hnqj9kuYuebI72fmPHg+2A8+VZ8jFuWtrkD8dlOWt2W5L51mDh7Of9F0fzXs7P4fKlX2AS8np11WdwtGLFc3fhwu+t6F0kl4IkkV/ugwFIsvn34wQdFUnYshdgh5ljyjyUtrMrYPkh2bhDGsGHDCJzUgdgwYFDIXHy6oo85NB3nPZYx8c4nMeqbl1HuhiWkNbyKD5JrT65LWG9K1Ba3+38l3w9fkc518O3kvaCSC1apgJAhml7UmFxtesXWYpupMYqbuWR1ZVrFZjZONAUDMKJhLbMkZLyCahGpA4qSpXOrYMBAzFSqLHnGfE55T93Ae6MWGgYEUWWtJ9+OteSdlc5nNNcl1xVdSePjV7UUnjcswzshlIxg50IQ5okjpONEikP7SN++lnzfZ5B+mF0YPcliIPETMiqL+FyOZyD7xyaFX0OrtC/qW+zdDGOGCnb3m1bTOPf5GIBYjeNxIJ7KQRKiPgyEKnE7+IoeA8beWpCP58m5lJd+Ez+ZlHHm1hqI9tBe8n0+CZODLI3nsh57krTS5chVqwlpVeuQVond8crwmUaCMDmPUyeYeI8RRGf9T+a+PDDozPVBsJpCnNDXLeG8cjwNVXh+kWWcOAdiYYRKzOh4oaYw4lx8scoOxiAcaYvteKSFF2GYY4d+7kB8MGBJzFSuMrmHM0GPu5U0d6ERJaBIttRprhLMTfO5pb5rI+EXfHqLCRt/TMAqEQfkqwacl0KeJ+eoIQm/h9vepk2b/B0PBcIo4YiD0aEeFvqPPvrIgE8Q9dmwEim6Fp+eVGJqyqporWoqJaV/SlS5Zr4xzCqSOQy6rfhxttC5A3783sztzXnIZx65tbpX8OmUs5jLV5ChCb/iUPIRI/igee5sKmBKx7x3tPreuQ/EACzJo0aNCtioDxZbuIra3aguMGcnxAoD1pxZxkypzlxxLnnnjiN99UIZmvCrzoTkans3uW96kB2SQ1cx1srAKIO5W7j24SBteESpUzrIHzoePJccsIcBEDGWN+KgNEztqfiE7nw1b/IHN1IH4ouB8JTCc7vuu/5Nessu5J3Jk96HeMcKDksIwNBVtTYlDeApqcqsdycYQMSYfgKHwFweuLHa8VA8wrCfc8WKFRNcm+KRPeat09PTxdw4cCeNXWgd7A4NGzYUc+DFo7VnVivCE3NBfbW6zcnz7ELSt6yi3LfuJxdPjgsxOh7t4UOw9bxT5ElnB3ycEw1RvQgAYjNc/9S5ZLVYN1uzZ/DphXLjOfWdc2+NAeAS0o7ZEQMGLxAyDmt3IDEYMBAzPgKMP5jIT01NNZxgJ4qHNbtRK0r+z2rS/9hGvq9mkm/dIsGpQxrKLOque/OE9qy17kWu1reQVrORRazEBoELY+WL6p8LMRA/+Ee3a9cu5lU8iW1B8NzxDVWuCGIqCgDBwuNJLQ86Mtw1sdJIrVNR1OdcKQN4FR5gQDYWiW/dslW0HfN+6NDYWK3zjZ1DHy59/DDpOzaQ7/efiXZvJp0dP+jgXp6u4ukoFUqWYq57Ec9RpxJVq0Ouei1ILGFUpqbU6EV1j1VNWM2C/awwgDVp0pRat77KMC1VVHWJVznYhGDbtm2G+Vss0bN7zEms9cAmDAsXLhQrszp06CD8u3EIuwOJw4BQaXjKRc+YlxF0JwaMsPf96z4hjkZclaPsScYDA5xRHDh3MABj4ooVK5mIe0XXb84dVMWtpfCJ0HiNpz71/6cGTMWopTS7rBlhOZ8DDgYcDJyZGBAGXKziAYsOBWtWrwn12nnnYMDBwGnEANRi6Mz/A1LVw+ZtRZSpAAAAAElFTkSuQmCC;" parent="_rchz5OiN__BkcshjIq5-1" vertex="1">
          <mxGeometry x="1609" y="403.99999999999994" width="80" height="17.45" as="geometry" />
        </mxCell>
        <mxCell id="xl436nRehyLvYvSucoG5-22" value="&lt;font color=&quot;#e6e6e6&quot;&gt;Data Quality&lt;/font&gt;" style="sketch=0;pointerEvents=1;shadow=0;dashed=0;html=1;strokeColor=none;fillColor=#E6E6E6;aspect=fixed;labelPosition=center;verticalLabelPosition=bottom;verticalAlign=top;align=center;outlineConnect=0;shape=mxgraph.vvd.nsx_dashboard;" parent="_rchz5OiN__BkcshjIq5-1" vertex="1">
          <mxGeometry x="1622" y="430" width="50" height="46.5" as="geometry" />
        </mxCell>
        <mxCell id="xl436nRehyLvYvSucoG5-23" value="" style="endArrow=classic;html=1;rounded=0;strokeColor=#E6E6E6;strokeWidth=3;entryX=1.002;entryY=0.579;entryDx=0;entryDy=0;entryPerimeter=0;" parent="_rchz5OiN__BkcshjIq5-1" source="xl436nRehyLvYvSucoG5-25" target="xl436nRehyLvYvSucoG5-27" edge="1">
          <mxGeometry width="50" height="50" relative="1" as="geometry">
            <mxPoint x="1198" y="-101.00000000000023" as="sourcePoint" />
            <mxPoint x="1275" y="-99.8900000000001" as="targetPoint" />
          </mxGeometry>
        </mxCell>
        <mxCell id="xl436nRehyLvYvSucoG5-24" value="" style="endArrow=classic;html=1;rounded=0;strokeColor=#E6E6E6;strokeWidth=3;exitX=0.5;exitY=0;exitDx=0;exitDy=0;entryX=0.5;entryY=1;entryDx=0;entryDy=0;entryPerimeter=0;" parent="_rchz5OiN__BkcshjIq5-1" source="xl436nRehyLvYvSucoG5-21" target="xl436nRehyLvYvSucoG5-18" edge="1">
          <mxGeometry width="50" height="50" relative="1" as="geometry">
            <mxPoint x="1208" y="-89.00000000000023" as="sourcePoint" />
            <mxPoint x="1285" y="-87.8900000000001" as="targetPoint" />
          </mxGeometry>
        </mxCell>
        <mxCell id="xl436nRehyLvYvSucoG5-25" value="" style="sketch=0;pointerEvents=1;shadow=0;dashed=0;html=1;strokeColor=none;fillColor=#E6E6E6;aspect=fixed;labelPosition=center;verticalLabelPosition=bottom;verticalAlign=top;align=center;outlineConnect=0;shape=mxgraph.vvd.nsx_dashboard;" parent="_rchz5OiN__BkcshjIq5-1" vertex="1">
          <mxGeometry x="1626" y="709" width="50" height="46.5" as="geometry" />
        </mxCell>
        <mxCell id="xl436nRehyLvYvSucoG5-26" value="" style="shape=image;verticalLabelPosition=bottom;labelBackgroundColor=default;verticalAlign=top;aspect=fixed;imageAspect=0;image=data:image/png,iVBORw0KGgoAAAANSUhEUgAAAPMAAAA1CAYAAACUR92WAAABXmlDQ1BJQ0MgUHJvZmlsZQAAKJFtkL9LQlEcxY9lWFrQL2oo4m2RvKSeQlOBOUTQ8LCibHs+TcsfXZ4vIojW1qbaI/oLAhscGoIg2oKKaGxoD1xKXudqpVYXLt8Ph/P93u89QEu7IUTWDSCXt63o3KyyGltTPK/owAC6MAWfYRZEWNcXaMF3bT7le7hkvRuXs6YHH6/6/P7rkSF9/7x0MvnX33S8iWTBZP3gDZjCsgGXStZ3bCF5j9xvcSnyoeRUjU8lx2t8UfUsRSPkW3K3mTYS5GeyGm/QUw2cy26bXzvI7TuT+eVF1l7eYYRhIgkLCqLQmMIE8/nfH6r6I9iCwC47NpBCGjY7w1QEspyjYB55TgxAJWucpiEkc/6dX11LHABBP5/y1rXNF6B0DPTc1LXRDL8yA1zGhGEZP6m6yu7CelCrsa8ItB05ztsK4BkDKg+O8150nMoZ0PrE3vInJHJhYoF6OHsAAABWZVhJZk1NACoAAAAIAAGHaQAEAAAAAQAAABoAAAAAAAOShgAHAAAAEgAAAESgAgAEAAAAAQAAAPOgAwAEAAAAAQAAADUAAAAAQVNDSUkAAABTY3JlZW5zaG90TD2eRwAAAdVpVFh0WE1MOmNvbS5hZG9iZS54bXAAAAAAADx4OnhtcG1ldGEgeG1sbnM6eD0iYWRvYmU6bnM6bWV0YS8iIHg6eG1wdGs9IlhNUCBDb3JlIDYuMC4wIj4KICAgPHJkZjpSREYgeG1sbnM6cmRmPSJodHRwOi8vd3d3LnczLm9yZy8xOTk5LzAyLzIyLXJkZi1zeW50YXgtbnMjIj4KICAgICAgPHJkZjpEZXNjcmlwdGlvbiByZGY6YWJvdXQ9IiIKICAgICAgICAgICAgeG1sbnM6ZXhpZj0iaHR0cDovL25zLmFkb2JlLmNvbS9leGlmLzEuMC8iPgogICAgICAgICA8ZXhpZjpQaXhlbFlEaW1lbnNpb24+NTM8L2V4aWY6UGl4ZWxZRGltZW5zaW9uPgogICAgICAgICA8ZXhpZjpQaXhlbFhEaW1lbnNpb24+MjQzPC9leGlmOlBpeGVsWERpbWVuc2lvbj4KICAgICAgICAgPGV4aWY6VXNlckNvbW1lbnQ+U2NyZWVuc2hvdDwvZXhpZjpVc2VyQ29tbWVudD4KICAgICAgPC9yZGY6RGVzY3JpcHRpb24+CiAgIDwvcmRmOlJERj4KPC94OnhtcG1ldGE+CocXVjwAABkzSURBVHgB7V0LmE1V+3/3OWcGuY5LKGKMawqJkhSVWyGRrnr8kb4uVERJ+mrk1uWpvu6EP0KoHpMovlSmlNyJkkuGVAwlcjcz5+zv/a2ZdWbtffY5Z5/bYOz3mTN777XX9d3rXe9lvWstbc2aNfqff/5JF198MZ1//vkUEfi8RMePkL5jHfmWzSXf1hWk5+aS5nETuZKMWfnySPfmkZZUgtxN25PW9i7SqqcRlSrLcV3GuAVPr7/+Bu3cudPwzuv1Us+ePahdu3aGcOfBwcC5igG3201JSUmk9e3XTwcSdF2nLjfdRN26dbOFE1/mHPIufoco9yRpPh+RpnE6/OwAF8nl6W4PUZlK5Ok5jLQm7QIS+jjf5cuX05w5PFDoPipXtiwNGDCA0tLSuDi7ZQVk6wQ4GCh2GChRogRp/fr3F8SM1pUuXZpefOGF4IRy4gj5FrxOvnVLiE4eZY7KHDgewFybylcjV6vu5OrQl8iTbMgVRH3y5EkqVapU8LoZUjgPDgbOLQx4PB5i1lgIeXlMVEHAt2I+eTNeJS33RH6MeBEycnNxNY78Rb7/vku+VQvI3WOogVO7WAw/77zzgtTMCXYwEIiBrKws+umnn2jTpk107NgxGjt2bGCkYhQChucnZojZ5cuVC+R8Rw6Sd8pj5Mv6gXVhkx4cb2RggPhnP+VNGUruK7qR6/YRRKxjO+BgwC4GcnJy6M4776TDhw8TRE8A7EHFHUC/rlMsvuacOkUVypWn9PR0Q5v17CzKHXIV6bs3J56QlZI11qV9axdR3hPXMMc+qLxxbh0MhMcAJMySJUsGMqbwSc/aGCBmz5tvvklovFmM1X9cRt6pj5PGRB4NwHLNVq6CpBqBQCMGNnLlju5Onkcnk3Zh/YiTOwkcDJxLGPDAqGQG39rF5J09ijSm9qDAMrruzSGtZFkmtAZElWsQpVQjLaUqG7DYTF6CdVx3Euk8faV5c0k/xbo2CPxgNul/7yHat5P07B0cztZwiO9BdHAt7xR533yA3EOmknZ+raDVcV44GDjXMRDILrN3knfO6PzpJhU7TNg6W521lOpE1euRq0ErcjW6gqhqHTVWwL2cQJJXNUIuz0l79mWR/tO35Nu+hmjPNtKPHWQubtLNTx2jvJd6U9KzC3kqq4KahXPvYMDBQAEGDMTsO/w35Y3qSq5SZQoRxByYktmQULMxeW57krRqqYXvYrzDRDfVaEAa/1yd7s3PbccGypv3Iun7dxO4Mmn5DiUaSwF5z3Ulz9gvHaNYjHi3Sg6dCxZRAJwQHLCPAYk3zLoUNaBsWa6BmL0THzEQsp7HnLP/S6Q1blN0BJTWjDzDZhHlnCRf5vvkXfgae41BFWDenpfDjiqTyN1tUFHjrNiWt2rVKnr//ffp119/FVM4IOSKFSvSNddcQ7169aLKlSuf9W3HHGy8Ye/evbTgkwW0ctVK+vvvv0X2wBss5126dKGGDRvGu0hDfl9//TV98OGHlM31gNX+tdeYTk6cOCEUY9/K+eSbPTpfd+VR2nXbCHJd1oHdLRUubciuiB7Ymo25Z+88HlRYD4cO7nloAmn1WyS8Ao8//jj9/PPP/nIw7YGOH66Dj0ofRatWr/JbU+GCOmPGjLDp/AUV3IwY8RRt3MhTggXebhiFx48fT02bNjVHNTxPnDiRPv74Y/+IjXnWL774gtRO/eKLL9Lq1avpyJEjghPLMpARuLT8Va9ene6//3668sorDWVYPQwaNIh27dpleIWO/eCDDxrC7DzAKNu9+y3c9sLYaP/zzz9PTZo08Qd+//339Nxzz0UtTVStWpWmTJnizy/czRtvvEEoEwQMjgi8SdxJnOFajqd5r2zVigY+9JB/iixc3nj/0ksv0dKlS/3fDjatD5loJWTMy6DZc2aL7ybLP378uOhf+XLBqePknf8Gx+eKNetAntFLyNW6x+knZLSgbAq5buhDnvTPSKvTXDiMeue/ijcJByk+yYLwkexAUrJJ57eTyCJOyZL586TyFT6enTrImQnZ0XDFBwds2bKF7rjjDsrMzCQeyAWBy84oy8EzygKX3r9/Pz399NOikyF+KOjatSvBDqLCV199pT7avv/99985rxxD/OTkZKpXr54hLNYHc9uD5bdm9Rq6++676bPPPhNz2BgYJTHJNCrexAC6ZAlhgMvakSWjhL2mVEgxfGPkIwGD9ISJE8S3xLeRdUc9AOK/d+FbLNYeJ9ed/yZ3nzFsZIpuOkoWmoirVqUmuQe9Q64O95L++xbS17NLqQOWGECnNwM43caNGwWXRQeRHQBSA34A9V5NDzEO3AJeVKfYJyEYdO7cmcqXN/YdcP6lPHBECuvWrSO1HRhYGzRoIFx6zXmpHDHYYGeOI5/NeVk9Z7JIO/LpkYKIpT0B9YHNB5JLrVq1qHbt2oIbI1zWATiGOD78yeHiapW3Oax0mdKGIDmAZmRk0Lx580SZhgjKg4flViaMpeR5YvZZMfXj6vIgc+hmbHEfT55m7VmYUOQwpWHn8i04s+xQEg9YGTd06FAqy4tVAHgPx4p77rmH2rZtK/TkQ4cOCRFy8uTJwhdejvyIj44JAnv55ZfpqaeeQpAltG/fnj755BP/O3CwhQsW0HXt2vnDwt2gbhmsJqgAIhk8eLAaJO7LlClDl156KdtJ87kT0v68ebMhHvCRllaXvFjlZ4KqYVYKrlixgsaMHi1wJZOijNtvv13gTlVd8H7r1q307LPPCjFY4g8E+eijj/KCoTn+QVTmZb5CPFcBaxKg3oErC4Mxv0T5Mm85KOPZo2fOJs+QSUSVLlTzOKPvtUZXkbsvSxBH2PBQrtIZXdfTUTkpZsuyQbSjuUNK98ajR48KooTurXbGChUq0I033kidOnUStoLhw4fLLMQVHeebb74hiNOq3qpGAjGj06p1MC9jVeNb3W/fvp327tljIKA6deoILmiOD0KGnikBHR+GOxA/AB0fnHP8+HEyiu3rP//8I/AG/ElAu959910CrqwA0sN7770n0mHwk0QHnEP3hYoTCiTByjiQBMaNG+e3CUDC6tixI/Xp00fgGO8hUaGOLq1557OKkGUjtVQ2grBU4UAgBkC06MQS8MHBdSXMmjWLLr/8cgMhy3e4gmgbN25MEyZMCOAkIP4xY8YIbqGmkfcgOjOhgzOp3FrGDXaFpVYOPIgDwmzZsmWw6AkLf/VVo20GhPQCGw6DEbKsCNQD2BnUAQ04BXc9ePCgjGZ5NX87SFIbNmwQgwK+IwygQ4YMEcZU5I/4uCJ/F5U/izlb+SqWCDnXA82ju8QHPvhbb71FF15oTwqrUaMGPfPMM8LdV+aBK3TuXSartfr+rrvuChhMwK1ADHZA5WiIj3Tdu3e3kzRucWD44407/JwVg+PAgQMplXVjOwAig7gt7RFIA+4Ju0UoAMGqgGe0H/k8/MgjdNlll/nrpMbDfb6iYQ51nosdBtAZMb0EkTMSaNGiBV100UUG4oToOHnS5KDZgKurVlhEhO534MCBoGnki3379tGOHTvko7hee+21Qqc3BCb4AaK0Kt1AfL/++usjKvWSSy6hKlUKGQ4G00WLFoXMA3GsoBVPc7W/4QarV/4w65T+187N2YgBK84MK/R9990XVXMg2pkBzhLQKa0ARinohlJvRRwQRriOjHhQAdT6gyO1u+46vCoyAOFK0RaFou7Qw7F5R6RwwQUXGJJ89913QVUUQ0TlAfWxswOQQ8wK0orLrXmuF+2qWbNm5Hu8FSAE000gUBUgMv7xxx9qkOG+b9++vN6mcL4d3ByECg4dCn74odBJBvEwIFzevHmoJHF/Bx3fPAV36623RlUOnFJUDg/xG952kQDSmO0QVunj7+dmVYoTdtoxULdu3ajrAKMXjD6q6IwwiMTBFv6D2M9nETM7O9tfLvS/H3/8kSC6WwEcW1RRHEQARw2rlX1W6eMVhh1KIBFIkReSAogb7Y0UUHe0Q1q1gQPp/mk3L/OsQ7B0DjEHw0wxCw9ngQ3X3EaNLqbffvvN38HRObGbRzDAe3BnTIlJsRkDQCY7kAQj5kmTJglOLIkIRIBpsqIGs3QAAxSmglQOa7dOsGyj3RLyiTm0RVvGlVe7dg5HzJYYK+ZXyRmibWaNGhcGdGaVU1vl26ZNG6picsr48ssvA1w+kRZ64dy5c/2DBcJA1BFv/4yEMQL2DzMDOCymgCL9qYQs82TPd3lr65qSkmIrnkPMttDkRFJdKyU27AwQba6+WkYXV3A3qznn3bt3G1xBwQ3htCK5tCGTBD/ABdVO26KpBtqFvfYSAYX8PxG5O3kWGwwcP5a/UENtEAwz4eAm3osdnk9S7wWngkXXbFBCGERQCXBrxDLM0wEe08aVUBOeeOIJ2/PkoeqMwQxTVokAh5gTgFXVUUBmb2Vhlu/OhuuuX3cFcCvp5x2q/pijhrfZZsVfGv7L0LelHzJEbCwikIAOX79+fflY5NeKLNbu3Jnlby+4NJw1YNQ7k8ERsxPwdTy8eaFZTIPoFilYDQqR5iHjQ7yLBeAvrYq8qFu4dd2yPNVXGmGYbsK6cAlYMy5XByEMdcVChtMFddLqGIpGfc6GwdghZsNni89DCV6HrFo+Qdh7eOFApPBPCGtxpHnBPTFaQGc2D0bgplj+ZwcgVsr11IgPcRpLKuVghd1OVJ0c+dqZV7VTdjRxYG1Xvx/aH+nccDTlxprGIeZYMWiRHitnVAAxf/vtt2pQ2Htwgi3MscwcPmzCIBHAWaMFELLZcg1vKDhE2AFYgPv3728gEBC35MZr1641ZHNDGLdFQ+QEPGAqSNXf8Q3eeeedBJQU3ywdYo4vPkVucNBQR3Z0BnCiSEQ1cFIrQrYKs9MErJpCHaIBLLZQAW0DcUZSl5tvvjlATMdySrTzl19+8WcPIr8uRvdNVR1AHcOtVPIXXnADY53quok8oOdHupTTnG+inx1iTgCGoUuqHQpFwIprXkAQrGgQ/SuvvGJwNkBciKVqJwuW3iocFtlI9rqSecBHGR1ZJVy0LVKCg7FLnTNGHjNmzBTb8EinEpQJYxlWa8UCWsGOrjIPqDhSpJdhoa74VvAtV9PA+PX222/HxaIdquxY3jnEHAv2gqSFlddMzOiwWH5o9vk1ZwHj0LRp0wwbCZrjRPsMN8LBg4fYlhDgijly5EiDPov6YUMA8/ZA4eoEfDz88MMGYjhw4C9awvtkSZEWHB/um7EAyklKMk7SYHCE91ok0KNHjwADH9w8scY5EgkrkjJjjes6q89yOhDc0T9WxMSSHsYczKOqIzvyg5iGnSRDARaeY78nORjIK9LITh8qfah3yGv79m3CNdGsA5vToa5WojT0X+x8EQ00a9aMqlWr5k8KPKkrrzBdFeuUFHCkGtNQGObDZ86c6S/X7s0jvH5Y6vVIA/xlZmaSeb22nfwwmKiql500kcbx6HtYXynBh2zVvjTStKc1Ps7CSnSdYyEe7K21ePHiACvw+vXrxbQLuBvWF0P8xE6Uy5YtExZTjProNPjw2IsLe0eplmC1c0XyAWDUgbgMcRFEg/qBcMCBsFhChmMb2fnz54sN6NSBBGVBqoj1aFRYirEUUhXbkTc4PogkWjUCeQCQb9tr29K8jHmGwW/58uV07733UqeOnaha9WrCoAd8YAueYItFsLvJgAEDxDZAsi8gf6z8wtZJUAewxhlrjaFCQNeGlR8DJUR7bGUMS/1ff/0lwrD9sapS5Nc4fv89WoOWlDe6B7luHkiupu3jl3MCc/J9PYfw8zyTkcBS8nXUaAvAx8d+0ej86gcEgYA4sVEcOhiIFh1E7SyYCnnggQfE1I+aFnUxc3u79cNUDzou9D7kiUEDK5igEwNQB9QF9UNd8KwCCBlb4YTbs1tNY3Xfs2dPWsAb/JnbhWcQTjyg9z296fMlnwdwVagN06ZPEwMHykF7sZFCMGJGHMx3g3ixr5laZ+AHS0CnT58uBl35/WS+yBu6txwQ8Yz59EROuQmd2XVlN/JOGkq+xZPRRNTnzAQ+0cI3Zyx5PxhD7juwQ6Sxw8W70rk5uYYs5YcxBIZ4wA4Z2GrGigAlAeODy46ADw4REdz4lltuETnjvQrh1gOrcdV71AFb72D1D7ggykId0EHxQzm4yrrItEhXqWIlwmmh2MUzVsBifasBoXbt2gHicbRlQRXAxv1opwpoL74h2oofnrHRXigAPvr160ePPfaYkKLM3xL5QYyXeUo84juq/QV1gcSTSMgn5o48zcD7Uvv+O5HyRnYk/UzTRbEd8N4dlPvYVeRbySc1XHwtaQ2uSCReRN45pk3YERipSx+mZDBHKf2YQUT4SZDP6FjYm2vq1Klih0z53qz/RTrNIvOR1969e4vTD6qy7ooyJWHL97I+CAdx33bbbTT9veliz2oZJ9ZramqqIQuIptGcemHIxPSAXUIxIwBiDNZGtD87294aZSzFhNcarNzym8h8rb6nxCMIGuI3ODwkm3CAOpnBKswcB8+Fx9NsZI+cSYP5XKeS3Nl4YXazTuT+v7FWaYo27CSfADl5GOm/rOa9kd18BOxxSnqaR7jqdRJeD3wAVV/Fx/v0008DRFA7FcGIDt0JujH0UizCT+YRvTbrstC74CUFfdH84cA5UK4EDApyYJBh5uvKlSvFRnwgRglY8PAQH5UiAXnC+IRN6zD/fJDnofk8E95rK4Wa884eWOQAi7XsuDJdPK6QEFQOl5aWJs5Kikfe5jwwUOzatUsYFeXOKBiQGzVqJPAOg1w4fJrzhBoEvRing6xft55+4T3LcnLyDwdISkqmmqxLN2jYQFj9sXwR5ZklHnOe8hnqj9kuYuebI72fmPHg+2A8+VZ8jFuWtrkD8dlOWt2W5L51mDh7Of9F0fzXs7P4fKlX2AS8np11WdwtGLFc3fhwu+t6F0kl4IkkV/ugwFIsvn34wQdFUnYshdgh5ljyjyUtrMrYPkh2bhDGsGHDCJzUgdgwYFDIXHy6oo85NB3nPZYx8c4nMeqbl1HuhiWkNbyKD5JrT65LWG9K1Ba3+38l3w9fkc518O3kvaCSC1apgJAhml7UmFxtesXWYpupMYqbuWR1ZVrFZjZONAUDMKJhLbMkZLyCahGpA4qSpXOrYMBAzFSqLHnGfE55T93Ae6MWGgYEUWWtJ9+OteSdlc5nNNcl1xVdSePjV7UUnjcswzshlIxg50IQ5okjpONEikP7SN++lnzfZ5B+mF0YPcliIPETMiqL+FyOZyD7xyaFX0OrtC/qW+zdDGOGCnb3m1bTOPf5GIBYjeNxIJ7KQRKiPgyEKnE7+IoeA8beWpCP58m5lJd+Ez+ZlHHm1hqI9tBe8n0+CZODLI3nsh57krTS5chVqwlpVeuQVond8crwmUaCMDmPUyeYeI8RRGf9T+a+PDDozPVBsJpCnNDXLeG8cjwNVXh+kWWcOAdiYYRKzOh4oaYw4lx8scoOxiAcaYvteKSFF2GYY4d+7kB8MGBJzFSuMrmHM0GPu5U0d6ERJaBIttRprhLMTfO5pb5rI+EXfHqLCRt/TMAqEQfkqwacl0KeJ+eoIQm/h9vepk2b/B0PBcIo4YiD0aEeFvqPPvrIgE8Q9dmwEim6Fp+eVGJqyqporWoqJaV/SlS5Zr4xzCqSOQy6rfhxttC5A3783sztzXnIZx65tbpX8OmUs5jLV5ChCb/iUPIRI/igee5sKmBKx7x3tPreuQ/EACzJo0aNCtioDxZbuIra3aguMGcnxAoD1pxZxkypzlxxLnnnjiN99UIZmvCrzoTkans3uW96kB2SQ1cx1srAKIO5W7j24SBteESpUzrIHzoePJccsIcBEDGWN+KgNEztqfiE7nw1b/IHN1IH4ouB8JTCc7vuu/5Nessu5J3Jk96HeMcKDksIwNBVtTYlDeApqcqsdycYQMSYfgKHwFweuLHa8VA8wrCfc8WKFRNcm+KRPeat09PTxdw4cCeNXWgd7A4NGzYUc+DFo7VnVivCE3NBfbW6zcnz7ELSt6yi3LfuJxdPjgsxOh7t4UOw9bxT5ElnB3ycEw1RvQgAYjNc/9S5ZLVYN1uzZ/DphXLjOfWdc2+NAeAS0o7ZEQMGLxAyDmt3IDEYMBAzPgKMP5jIT01NNZxgJ4qHNbtRK0r+z2rS/9hGvq9mkm/dIsGpQxrKLOque/OE9qy17kWu1reQVrORRazEBoELY+WL6p8LMRA/+Ee3a9cu5lU8iW1B8NzxDVWuCGIqCgDBwuNJLQ86Mtw1sdJIrVNR1OdcKQN4FR5gQDYWiW/dslW0HfN+6NDYWK3zjZ1DHy59/DDpOzaQ7/efiXZvJp0dP+jgXp6u4ukoFUqWYq57Ec9RpxJVq0Ouei1ILGFUpqbU6EV1j1VNWM2C/awwgDVp0pRat77KMC1VVHWJVznYhGDbtm2G+Vss0bN7zEms9cAmDAsXLhQrszp06CD8u3EIuwOJw4BQaXjKRc+YlxF0JwaMsPf96z4hjkZclaPsScYDA5xRHDh3MABj4ooVK5mIe0XXb84dVMWtpfCJ0HiNpz71/6cGTMWopTS7rBlhOZ8DDgYcDJyZGBAGXKziAYsOBWtWrwn12nnnYMDBwGnEANRi6Mz/A1LVw+ZtRZSpAAAAAElFTkSuQmCC;" parent="_rchz5OiN__BkcshjIq5-1" vertex="1">
          <mxGeometry x="1611" y="681.28" width="80" height="17.45" as="geometry" />
        </mxCell>
        <mxCell id="xl436nRehyLvYvSucoG5-27" value="&lt;div&gt;dirty loan&lt;br&gt;&lt;/div&gt;" style="image;aspect=fixed;html=1;points=[];align=center;fontSize=12;image=img/lib/azure2/general/Files.svg;imageBackground=none;" parent="_rchz5OiN__BkcshjIq5-1" vertex="1">
          <mxGeometry x="1429" y="675" width="86.86" height="95" as="geometry" />
        </mxCell>
        <mxCell id="GcDE0oX-24trRFV2WZ9c-0" value="Data Exploration" style="rounded=0;arcSize=10;dashed=1;strokeColor=#F59D56;fillColor=none;gradientColor=none;dashPattern=8 4;strokeWidth=2;fontSize=24;fontColor=#E6E6E6;align=left;verticalAlign=top;" parent="_rchz5OiN__BkcshjIq5-1" vertex="1">
          <mxGeometry x="1332" y="577" width="443" height="257" as="geometry" />
        </mxCell>
        <mxCell id="GcDE0oX-24trRFV2WZ9c-1" value="ML" style="image;sketch=0;aspect=fixed;html=1;points=[];align=center;fontSize=12;image=img/lib/mscae/Cognitive_Services.svg;" parent="_rchz5OiN__BkcshjIq5-1" vertex="1">
          <mxGeometry x="1906" y="161" width="50" height="30" as="geometry" />
        </mxCell>
        <mxCell id="GcDE0oX-24trRFV2WZ9c-2" value="" style="endArrow=classic;html=1;rounded=0;strokeColor=#E6E6E6;strokeWidth=3;entryX=1;entryY=0.5;entryDx=0;entryDy=0;entryPerimeter=0;" parent="_rchz5OiN__BkcshjIq5-1" source="GcDE0oX-24trRFV2WZ9c-1" target="xl436nRehyLvYvSucoG5-18" edge="1">
          <mxGeometry width="50" height="50" relative="1" as="geometry">
            <mxPoint x="688" y="187" as="sourcePoint" />
            <mxPoint x="812" y="185" as="targetPoint" />
          </mxGeometry>
        </mxCell>
        <mxCell id="GcDE0oX-24trRFV2WZ9c-3" value="&lt;div&gt;&lt;font style=&quot;font-size: 22px;&quot; color=&quot;#99ccff&quot;&gt;Data Qualiy&lt;/font&gt;&lt;/div&gt;" style="fillColor=none;strokeColor=#147EBA;dashed=1;verticalAlign=top;fontStyle=0;fontColor=#147EBA;whiteSpace=wrap;html=1;rounded=0;strokeWidth=3;" parent="_rchz5OiN__BkcshjIq5-1" vertex="1">
          <mxGeometry x="1400" y="306.57" width="358" height="224" as="geometry" />
        </mxCell>
        <mxCell id="GcDE0oX-24trRFV2WZ9c-4" value="&lt;font color=&quot;#e6e6e6&quot;&gt;wrangling.py&lt;/font&gt;" style="text;html=1;align=center;verticalAlign=middle;whiteSpace=wrap;rounded=0;" parent="_rchz5OiN__BkcshjIq5-1" vertex="1">
          <mxGeometry x="1453" y="103" width="60" height="30" as="geometry" />
        </mxCell>
        <mxCell id="Zv2KJzAXO4pKRZKgi-da-1" value="" style="endArrow=classic;html=1;rounded=0;strokeColor=#E6E6E6;strokeWidth=3;entryX=0.5;entryY=0;entryDx=0;entryDy=0;entryPerimeter=0;exitX=1;exitY=0.5;exitDx=0;exitDy=0;exitPerimeter=0;" edge="1" parent="_rchz5OiN__BkcshjIq5-1" source="Zv2KJzAXO4pKRZKgi-da-10" target="Zv2KJzAXO4pKRZKgi-da-0">
          <mxGeometry width="50" height="50" relative="1" as="geometry">
            <mxPoint x="654" y="196" as="sourcePoint" />
            <mxPoint x="904" y="198" as="targetPoint" />
          </mxGeometry>
        </mxCell>
        <mxCell id="Zv2KJzAXO4pKRZKgi-da-0" value="&lt;div&gt;&lt;span style=&quot;font-size: 18px;&quot;&gt;Facts&lt;/span&gt;&lt;/div&gt;" style="shape=cylinder3;whiteSpace=wrap;html=1;boundedLbl=1;backgroundOutline=1;size=15;" vertex="1" parent="_rchz5OiN__BkcshjIq5-1">
          <mxGeometry x="866" y="69.5" width="87" height="83" as="geometry" />
        </mxCell>
        <mxCell id="Zv2KJzAXO4pKRZKgi-da-2" value="&lt;div&gt;&lt;span style=&quot;font-size: 18px;&quot;&gt;Dimension&lt;/span&gt;&lt;/div&gt;" style="shape=cylinder3;whiteSpace=wrap;html=1;boundedLbl=1;backgroundOutline=1;size=15;" vertex="1" parent="_rchz5OiN__BkcshjIq5-1">
          <mxGeometry x="860" y="235.5" width="106" height="83" as="geometry" />
        </mxCell>
        <mxCell id="Zv2KJzAXO4pKRZKgi-da-4" value="&lt;div&gt;&lt;span style=&quot;font-size: 18px;&quot;&gt;Mart&lt;/span&gt;&lt;/div&gt;&lt;div&gt;&lt;span style=&quot;font-size: 18px;&quot;&gt;Loans&lt;/span&gt;&lt;/div&gt;" style="shape=cylinder3;whiteSpace=wrap;html=1;boundedLbl=1;backgroundOutline=1;size=15;" vertex="1" parent="_rchz5OiN__BkcshjIq5-1">
          <mxGeometry x="1164" y="131.5" width="87" height="83" as="geometry" />
        </mxCell>
        <mxCell id="Zv2KJzAXO4pKRZKgi-da-5" value="" style="endArrow=classic;html=1;rounded=0;strokeColor=#E6E6E6;strokeWidth=3;exitX=1;exitY=0.5;exitDx=0;exitDy=0;exitPerimeter=0;entryX=0;entryY=0.5;entryDx=0;entryDy=0;entryPerimeter=0;" edge="1" parent="_rchz5OiN__BkcshjIq5-1" source="Zv2KJzAXO4pKRZKgi-da-10" target="Zv2KJzAXO4pKRZKgi-da-2">
          <mxGeometry width="50" height="50" relative="1" as="geometry">
            <mxPoint x="511" y="397" as="sourcePoint" />
            <mxPoint x="511" y="470" as="targetPoint" />
          </mxGeometry>
        </mxCell>
        <mxCell id="Zv2KJzAXO4pKRZKgi-da-7" value="&lt;div style=&quot;font-size: 22px;&quot;&gt;&lt;font color=&quot;#99ccff&quot;&gt;Datawarehouse&lt;/font&gt;&lt;/div&gt;" style="fillColor=none;strokeColor=#147EBA;dashed=1;verticalAlign=top;fontStyle=0;fontColor=#147EBA;whiteSpace=wrap;html=1;rounded=0;strokeWidth=3;" vertex="1" parent="_rchz5OiN__BkcshjIq5-1">
          <mxGeometry x="711" y="37" width="290" height="757" as="geometry" />
        </mxCell>
        <mxCell id="Zv2KJzAXO4pKRZKgi-da-8" value="&lt;font color=&quot;#99ccff&quot; style=&quot;font-size: 22px;&quot;&gt;Data Ingestion&lt;/font&gt;&lt;div style=&quot;font-size: 22px;&quot;&gt;&lt;br&gt;&lt;/div&gt;" style="fillColor=none;strokeColor=#147EBA;dashed=1;verticalAlign=top;fontStyle=0;fontColor=#147EBA;whiteSpace=wrap;html=1;rounded=0;strokeWidth=3;" vertex="1" parent="_rchz5OiN__BkcshjIq5-1">
          <mxGeometry x="225" y="40" width="210" height="750" as="geometry" />
        </mxCell>
        <mxCell id="Zv2KJzAXO4pKRZKgi-da-10" value="&lt;font color=&quot;#e6e6e6&quot;&gt;Modelling&lt;/font&gt;" style="verticalLabelPosition=bottom;html=1;verticalAlign=top;align=center;strokeColor=none;fillColor=#00BEF2;shape=mxgraph.azure.script_file;pointerEvents=1;" vertex="1" parent="_rchz5OiN__BkcshjIq5-1">
          <mxGeometry x="748.5" y="158" width="47.5" height="50" as="geometry" />
        </mxCell>
        <mxCell id="Zv2KJzAXO4pKRZKgi-da-13" value="" style="endArrow=classic;html=1;rounded=0;strokeColor=#E6E6E6;strokeWidth=3;exitX=1;exitY=0.5;exitDx=0;exitDy=0;exitPerimeter=0;entryX=0;entryY=0.5;entryDx=0;entryDy=0;entryPerimeter=0;" edge="1" parent="_rchz5OiN__BkcshjIq5-1" source="xl436nRehyLvYvSucoG5-12" target="Zv2KJzAXO4pKRZKgi-da-10">
          <mxGeometry width="50" height="50" relative="1" as="geometry">
            <mxPoint x="806" y="199" as="sourcePoint" />
            <mxPoint x="845" y="258" as="targetPoint" />
          </mxGeometry>
        </mxCell>
        <mxCell id="Zv2KJzAXO4pKRZKgi-da-14" value="" style="endArrow=classic;html=1;rounded=0;strokeColor=#E6E6E6;strokeWidth=3;exitX=1;exitY=0;exitDx=0;exitDy=54.75;exitPerimeter=0;entryX=0;entryY=0.5;entryDx=0;entryDy=0;entryPerimeter=0;" edge="1" parent="_rchz5OiN__BkcshjIq5-1" source="Zv2KJzAXO4pKRZKgi-da-2" target="Zv2KJzAXO4pKRZKgi-da-17">
          <mxGeometry width="50" height="50" relative="1" as="geometry">
            <mxPoint x="1065" y="273" as="sourcePoint" />
            <mxPoint x="1136" y="181" as="targetPoint" />
          </mxGeometry>
        </mxCell>
        <mxCell id="Zv2KJzAXO4pKRZKgi-da-17" value="&lt;font color=&quot;#e6e6e6&quot;&gt;Data Marts&lt;/font&gt;" style="verticalLabelPosition=bottom;html=1;verticalAlign=top;align=center;strokeColor=none;fillColor=#00BEF2;shape=mxgraph.azure.script_file;pointerEvents=1;" vertex="1" parent="_rchz5OiN__BkcshjIq5-1">
          <mxGeometry x="1055" y="162" width="47.5" height="50" as="geometry" />
        </mxCell>
        <mxCell id="Zv2KJzAXO4pKRZKgi-da-18" value="" style="endArrow=classic;html=1;rounded=0;strokeColor=#E6E6E6;strokeWidth=3;exitX=1;exitY=0.5;exitDx=0;exitDy=0;exitPerimeter=0;entryX=0;entryY=0;entryDx=0;entryDy=54.75;entryPerimeter=0;" edge="1" parent="_rchz5OiN__BkcshjIq5-1" source="Zv2KJzAXO4pKRZKgi-da-17" target="Zv2KJzAXO4pKRZKgi-da-4">
          <mxGeometry width="50" height="50" relative="1" as="geometry">
            <mxPoint x="976" y="300" as="sourcePoint" />
            <mxPoint x="1065" y="197" as="targetPoint" />
          </mxGeometry>
        </mxCell>
        <mxCell id="Zv2KJzAXO4pKRZKgi-da-19" value="&lt;div style=&quot;font-size: 22px;&quot;&gt;&lt;font color=&quot;#99ccff&quot;&gt;Data Mart&lt;/font&gt;&lt;/div&gt;" style="fillColor=none;strokeColor=#147EBA;dashed=1;verticalAlign=top;fontStyle=0;fontColor=#147EBA;whiteSpace=wrap;html=1;rounded=0;strokeWidth=3;" vertex="1" parent="_rchz5OiN__BkcshjIq5-1">
          <mxGeometry x="1014" y="33.72" width="290" height="757.57" as="geometry" />
        </mxCell>
        <mxCell id="Zv2KJzAXO4pKRZKgi-da-20" value="" style="endArrow=classic;html=1;rounded=0;strokeColor=#E6E6E6;strokeWidth=3;entryX=0;entryY=0.5;entryDx=0;entryDy=0;entryPerimeter=0;" edge="1" parent="_rchz5OiN__BkcshjIq5-1" source="Zv2KJzAXO4pKRZKgi-da-4" target="xl436nRehyLvYvSucoG5-17">
          <mxGeometry width="50" height="50" relative="1" as="geometry">
            <mxPoint x="1341" y="160" as="sourcePoint" />
            <mxPoint x="1701" y="188" as="targetPoint" />
          </mxGeometry>
        </mxCell>
        <mxCell id="Zv2KJzAXO4pKRZKgi-da-22" value="Data Platform" style="rounded=0;arcSize=10;dashed=1;strokeColor=#F59D56;fillColor=none;gradientColor=none;dashPattern=8 4;strokeWidth=2;fontSize=24;fontColor=#E6E6E6;align=left;verticalAlign=top;" vertex="1" parent="_rchz5OiN__BkcshjIq5-1">
          <mxGeometry x="214" y="-12.5" width="1100" height="840" as="geometry" />
        </mxCell>
      </root>
    </mxGraphModel>
  </diagram>
  <diagram name="cloud - lending club loans pipeline" id="dO9GEhuYB7HP91IdC2CB">
    <mxGraphModel dx="2501" dy="2023" grid="0" gridSize="10" guides="1" tooltips="1" connect="1" arrows="1" fold="1" page="1" pageScale="1" pageWidth="827" pageHeight="1169" background="#333333" math="0" shadow="0">
      <root>
        <mxCell id="4zkm5lvDwpXeIRacTq98-0" />
        <mxCell id="4zkm5lvDwpXeIRacTq98-1" value="pipeline" style="" parent="4zkm5lvDwpXeIRacTq98-0" />
        <mxCell id="4zkm5lvDwpXeIRacTq98-2" value="&lt;blockquote style=&quot;margin: 0 0 0 40px; border: none; padding: 0px;&quot;&gt;&lt;div style=&quot;&quot;&gt;&lt;span style=&quot;color: rgba(0, 0, 0, 0); font-family: monospace; font-size: 0px; text-wrap: nowrap;&quot;&gt;%3CmxGraphModel%3E%3Croot%3E%3CmxCell%20id%3D%220%22%2F%3E%3CmxCell%20id%3D%221%22%20parent%3D%220%22%2F%3E%3CmxCell%20id%3D%222%22%20value%3D%22Use%20Cases%22%20style%3D%22rounded%3D0%3BarcSize%3D10%3Bdashed%3D1%3BstrokeColor%3D%23F59D56%3BfillColor%3Dnone%3BgradientColor%3Dnone%3BdashPattern%3D8%204%3BstrokeWidth%3D2%3BfontSize%3D24%3BfontColor%3D%23E6E6E6%3Balign%3Dleft%3BverticalAlign%3Dtop%3B%22%20vertex%3D%221%22%20parent%3D%221%22%3E%3CmxGeometry%20x%3D%221432%22%20y%3D%22-34%22%20width%3D%22273%22%20height%3D%22840%22%20as%3D%22geometry%22%2F%3E%3C%2FmxCell%3E%3C%2Froot%3E%3C%2FmxGraphModel%3E&lt;/span&gt;&lt;br&gt;&lt;/div&gt;&lt;/blockquote&gt;" style="rounded=0;whiteSpace=wrap;html=1;align=left;labelPosition=center;verticalLabelPosition=top;verticalAlign=bottom;fillColor=#262A2B;" vertex="1" parent="4zkm5lvDwpXeIRacTq98-1">
          <mxGeometry x="10" y="30" width="203" height="766" as="geometry" />
        </mxCell>
        <mxCell id="4zkm5lvDwpXeIRacTq98-3" value="&lt;font color=&quot;#99ccff&quot; style=&quot;font-size: 22px;&quot;&gt;Data Ingestion&lt;/font&gt;&lt;div style=&quot;font-size: 22px;&quot;&gt;&lt;br&gt;&lt;/div&gt;" style="fillColor=none;strokeColor=#147EBA;dashed=1;verticalAlign=top;fontStyle=0;fontColor=#147EBA;whiteSpace=wrap;html=1;rounded=0;strokeWidth=3;" vertex="1" parent="4zkm5lvDwpXeIRacTq98-1">
          <mxGeometry x="254" y="26" width="466" height="509.57" as="geometry" />
        </mxCell>
        <mxCell id="4zkm5lvDwpXeIRacTq98-4" value="&lt;b style=&quot;&quot;&gt;&lt;font color=&quot;#e6e6e6&quot; style=&quot;font-size: 36px;&quot;&gt;Project Lending Club Loans&lt;/font&gt;&lt;/b&gt;" style="text;html=1;align=center;verticalAlign=middle;whiteSpace=wrap;rounded=0;" vertex="1" parent="4zkm5lvDwpXeIRacTq98-1">
          <mxGeometry x="-1" y="-67" width="496" height="40" as="geometry" />
        </mxCell>
        <mxCell id="4zkm5lvDwpXeIRacTq98-5" value="Data Science" style="rounded=0;arcSize=10;dashed=1;strokeColor=#F59D56;fillColor=none;gradientColor=none;dashPattern=8 4;strokeWidth=2;fontSize=24;fontColor=#E6E6E6;align=left;verticalAlign=top;" vertex="1" parent="4zkm5lvDwpXeIRacTq98-1">
          <mxGeometry x="1308" y="-2" width="273" height="840" as="geometry" />
        </mxCell>
        <mxCell id="4zkm5lvDwpXeIRacTq98-6" value="&lt;div&gt;&lt;font style=&quot;font-size: 18px;&quot;&gt;Loans&lt;/font&gt;&lt;/div&gt;" style="shape=cylinder3;whiteSpace=wrap;html=1;boundedLbl=1;backgroundOutline=1;size=15;" vertex="1" parent="4zkm5lvDwpXeIRacTq98-1">
          <mxGeometry x="382" y="154" width="87" height="83" as="geometry" />
        </mxCell>
        <mxCell id="4zkm5lvDwpXeIRacTq98-7" value="clean-loan-csv" style="image;aspect=fixed;html=1;points=[];align=center;fontSize=12;image=img/lib/azure2/general/Files.svg;imageBackground=none;" vertex="1" parent="4zkm5lvDwpXeIRacTq98-1">
          <mxGeometry x="66" y="154" width="86.86" height="95" as="geometry" />
        </mxCell>
        <mxCell id="4zkm5lvDwpXeIRacTq98-8" value="&lt;div&gt;&lt;font style=&quot;font-size: 22px;&quot; color=&quot;#99ccff&quot;&gt;Exploration&lt;/font&gt;&lt;/div&gt;" style="fillColor=none;strokeColor=#147EBA;dashed=1;verticalAlign=top;fontStyle=0;fontColor=#147EBA;whiteSpace=wrap;html=1;rounded=0;strokeWidth=2;" vertex="1" parent="4zkm5lvDwpXeIRacTq98-1">
          <mxGeometry x="879" y="622" width="350" height="198" as="geometry" />
        </mxCell>
        <mxCell id="4zkm5lvDwpXeIRacTq98-9" value="&lt;div&gt;&lt;font style=&quot;font-size: 22px;&quot; color=&quot;#99ccff&quot;&gt;Wrangling&lt;/font&gt;&lt;/div&gt;" style="fillColor=none;strokeColor=#147EBA;dashed=1;verticalAlign=top;fontStyle=0;fontColor=#147EBA;whiteSpace=wrap;html=1;rounded=0;strokeWidth=3;" vertex="1" parent="4zkm5lvDwpXeIRacTq98-1">
          <mxGeometry x="879" y="31" width="358" height="562" as="geometry" />
        </mxCell>
        <mxCell id="4zkm5lvDwpXeIRacTq98-10" value="" style="endArrow=classic;html=1;rounded=0;strokeColor=#E6E6E6;strokeWidth=3;exitX=1.048;exitY=0.46;exitDx=0;exitDy=0;exitPerimeter=0;" edge="1" parent="4zkm5lvDwpXeIRacTq98-1" source="4zkm5lvDwpXeIRacTq98-18" target="4zkm5lvDwpXeIRacTq98-6">
          <mxGeometry width="50" height="50" relative="1" as="geometry">
            <mxPoint x="-142" y="317" as="sourcePoint" />
            <mxPoint x="312" y="165" as="targetPoint" />
          </mxGeometry>
        </mxCell>
        <mxCell id="4zkm5lvDwpXeIRacTq98-11" value="&lt;font color=&quot;#99ccff&quot;&gt;&lt;span style=&quot;font-size: 18px;&quot;&gt;Data Science / ML&lt;/span&gt;&lt;/font&gt;" style="fillColor=none;strokeColor=#147EBA;dashed=1;verticalAlign=top;fontStyle=0;fontColor=#147EBA;whiteSpace=wrap;html=1;rounded=0;strokeWidth=2;" vertex="1" parent="4zkm5lvDwpXeIRacTq98-1">
          <mxGeometry x="1330" y="34" width="213" height="708" as="geometry" />
        </mxCell>
        <mxCell id="4zkm5lvDwpXeIRacTq98-12" value="Staging Area" style="rounded=0;arcSize=10;dashed=1;strokeColor=#F59D56;fillColor=none;gradientColor=none;dashPattern=8 4;strokeWidth=2;fontSize=24;fontColor=#E6E6E6;align=left;verticalAlign=top;" vertex="1" parent="4zkm5lvDwpXeIRacTq98-1">
          <mxGeometry x="4" y="-10" width="209" height="840" as="geometry" />
        </mxCell>
        <mxCell id="4zkm5lvDwpXeIRacTq98-13" value="" style="endArrow=classic;html=1;rounded=0;strokeColor=#E6E6E6;strokeWidth=3;exitX=1;exitY=0.5;exitDx=0;exitDy=0;exitPerimeter=0;" edge="1" parent="4zkm5lvDwpXeIRacTq98-1" target="4zkm5lvDwpXeIRacTq98-22">
          <mxGeometry width="50" height="50" relative="1" as="geometry">
            <mxPoint x="571.5" y="196.5" as="sourcePoint" />
            <mxPoint x="608" y="193.5" as="targetPoint" />
          </mxGeometry>
        </mxCell>
        <mxCell id="4zkm5lvDwpXeIRacTq98-14" value="&lt;div&gt;us.csv&lt;br&gt;&lt;/div&gt;" style="image;aspect=fixed;html=1;points=[];align=center;fontSize=12;image=img/lib/azure2/general/Files.svg;imageBackground=none;" vertex="1" parent="4zkm5lvDwpXeIRacTq98-1">
          <mxGeometry x="68.07" y="348" width="86.86" height="95" as="geometry" />
        </mxCell>
        <mxCell id="4zkm5lvDwpXeIRacTq98-15" value="US&amp;nbsp;" style="shape=cylinder3;whiteSpace=wrap;html=1;boundedLbl=1;backgroundOutline=1;size=15;" vertex="1" parent="4zkm5lvDwpXeIRacTq98-1">
          <mxGeometry x="384" y="341" width="87" height="83" as="geometry" />
        </mxCell>
        <mxCell id="4zkm5lvDwpXeIRacTq98-16" value="" style="endArrow=classic;html=1;rounded=0;strokeColor=#E6E6E6;strokeWidth=3;entryX=0;entryY=0.5;entryDx=0;entryDy=0;entryPerimeter=0;" edge="1" parent="4zkm5lvDwpXeIRacTq98-1" source="4zkm5lvDwpXeIRacTq98-14" target="4zkm5lvDwpXeIRacTq98-19">
          <mxGeometry width="50" height="50" relative="1" as="geometry">
            <mxPoint x="167" y="208" as="sourcePoint" />
            <mxPoint x="352" y="203" as="targetPoint" />
          </mxGeometry>
        </mxCell>
        <mxCell id="4zkm5lvDwpXeIRacTq98-17" value="" style="endArrow=classic;html=1;rounded=0;strokeColor=#E6E6E6;strokeWidth=3;exitX=1.048;exitY=0.46;exitDx=0;exitDy=0;exitPerimeter=0;" edge="1" parent="4zkm5lvDwpXeIRacTq98-1" source="4zkm5lvDwpXeIRacTq98-7" target="4zkm5lvDwpXeIRacTq98-18">
          <mxGeometry width="50" height="50" relative="1" as="geometry">
            <mxPoint x="157" y="198" as="sourcePoint" />
            <mxPoint x="369" y="196" as="targetPoint" />
          </mxGeometry>
        </mxCell>
        <mxCell id="4zkm5lvDwpXeIRacTq98-18" value="&lt;font color=&quot;#e6e6e6&quot;&gt;SQL1&lt;/font&gt;" style="verticalLabelPosition=bottom;html=1;verticalAlign=top;align=center;strokeColor=none;fillColor=#00BEF2;shape=mxgraph.azure.script_file;pointerEvents=1;" vertex="1" parent="4zkm5lvDwpXeIRacTq98-1">
          <mxGeometry x="281.25" y="171" width="47.5" height="50" as="geometry" />
        </mxCell>
        <mxCell id="4zkm5lvDwpXeIRacTq98-19" value="&lt;font color=&quot;#e6e6e6&quot;&gt;SQL2&lt;/font&gt;" style="verticalLabelPosition=bottom;html=1;verticalAlign=top;align=center;strokeColor=none;fillColor=#00BEF2;shape=mxgraph.azure.script_file;pointerEvents=1;" vertex="1" parent="4zkm5lvDwpXeIRacTq98-1">
          <mxGeometry x="288" y="369" width="47.5" height="50" as="geometry" />
        </mxCell>
        <mxCell id="4zkm5lvDwpXeIRacTq98-20" value="" style="endArrow=classic;html=1;rounded=0;strokeColor=#E6E6E6;strokeWidth=3;exitX=1;exitY=0.5;exitDx=0;exitDy=0;exitPerimeter=0;entryX=0;entryY=0;entryDx=0;entryDy=54.75;entryPerimeter=0;" edge="1" parent="4zkm5lvDwpXeIRacTq98-1" source="4zkm5lvDwpXeIRacTq98-19" target="4zkm5lvDwpXeIRacTq98-15">
          <mxGeometry width="50" height="50" relative="1" as="geometry">
            <mxPoint x="167" y="208" as="sourcePoint" />
            <mxPoint x="291" y="206" as="targetPoint" />
          </mxGeometry>
        </mxCell>
        <mxCell id="4zkm5lvDwpXeIRacTq98-21" value="&lt;font color=&quot;#e6e6e6&quot;&gt;Cleaning&lt;/font&gt;&lt;div&gt;&lt;font color=&quot;#e6e6e6&quot;&gt;SQL&lt;/font&gt;&lt;/div&gt;" style="verticalLabelPosition=bottom;html=1;verticalAlign=top;align=center;strokeColor=none;fillColor=#00BEF2;shape=mxgraph.azure.script_file;pointerEvents=1;" vertex="1" parent="4zkm5lvDwpXeIRacTq98-1">
          <mxGeometry x="521" y="171.5" width="47.5" height="50" as="geometry" />
        </mxCell>
        <mxCell id="4zkm5lvDwpXeIRacTq98-22" value="&lt;div&gt;&lt;font style=&quot;font-size: 18px;&quot;&gt;Clean&lt;/font&gt;&lt;/div&gt;&lt;div&gt;&lt;font style=&quot;font-size: 18px;&quot;&gt;Loans&lt;/font&gt;&lt;/div&gt;" style="shape=cylinder3;whiteSpace=wrap;html=1;boundedLbl=1;backgroundOutline=1;size=15;" vertex="1" parent="4zkm5lvDwpXeIRacTq98-1">
          <mxGeometry x="617" y="154" width="87" height="83" as="geometry" />
        </mxCell>
        <mxCell id="4zkm5lvDwpXeIRacTq98-23" value="" style="endArrow=classic;html=1;rounded=0;strokeColor=#E6E6E6;strokeWidth=3;entryX=0;entryY=0.5;entryDx=0;entryDy=0;entryPerimeter=0;exitX=1;exitY=0.5;exitDx=0;exitDy=0;exitPerimeter=0;" edge="1" parent="4zkm5lvDwpXeIRacTq98-1" source="4zkm5lvDwpXeIRacTq98-6" target="4zkm5lvDwpXeIRacTq98-21">
          <mxGeometry width="50" height="50" relative="1" as="geometry">
            <mxPoint x="465" y="203" as="sourcePoint" />
            <mxPoint x="291" y="206" as="targetPoint" />
          </mxGeometry>
        </mxCell>
        <mxCell id="4zkm5lvDwpXeIRacTq98-24" value="Ingestion - DHW" style="rounded=0;arcSize=10;dashed=1;strokeColor=#F59D56;fillColor=none;gradientColor=none;dashPattern=8 4;strokeWidth=2;fontSize=24;fontColor=#E6E6E6;align=left;verticalAlign=top;" vertex="1" parent="4zkm5lvDwpXeIRacTq98-1">
          <mxGeometry x="231" y="-10" width="528" height="840" as="geometry" />
        </mxCell>
        <mxCell id="4zkm5lvDwpXeIRacTq98-25" value="Data WranglingÂ " style="rounded=0;arcSize=10;dashed=1;strokeColor=#F59D56;fillColor=none;gradientColor=none;dashPattern=8 4;strokeWidth=2;fontSize=24;fontColor=#E6E6E6;align=left;verticalAlign=top;" vertex="1" parent="4zkm5lvDwpXeIRacTq98-1">
          <mxGeometry x="784" y="-7" width="494" height="840" as="geometry" />
        </mxCell>
        <mxCell id="4zkm5lvDwpXeIRacTq98-26" value="&lt;div&gt;Python wrangling&lt;/div&gt;" style="html=1;whiteSpace=wrap;strokeColor=none;fillColor=#0079D6;labelPosition=center;verticalLabelPosition=middle;verticalAlign=top;align=center;fontSize=12;outlineConnect=0;spacingTop=-6;fontColor=#FFFFFF;sketch=0;shape=mxgraph.sitemap.script;" vertex="1" parent="4zkm5lvDwpXeIRacTq98-1">
          <mxGeometry x="904" y="163" width="120" height="70" as="geometry" />
        </mxCell>
        <mxCell id="4zkm5lvDwpXeIRacTq98-27" value="&lt;div&gt;&lt;span style=&quot;font-size: 18px;&quot;&gt;wrangled&lt;/span&gt;&lt;/div&gt;" style="shape=cylinder3;whiteSpace=wrap;html=1;boundedLbl=1;backgroundOutline=1;size=15;" vertex="1" parent="4zkm5lvDwpXeIRacTq98-1">
          <mxGeometry x="1083" y="157.5" width="87" height="83" as="geometry" />
        </mxCell>
        <mxCell id="4zkm5lvDwpXeIRacTq98-28" value="" style="endArrow=classic;html=1;rounded=0;strokeColor=#E6E6E6;strokeWidth=3;exitX=1;exitY=0.5;exitDx=0;exitDy=0;entryX=0;entryY=0.5;entryDx=0;entryDy=0;entryPerimeter=0;exitPerimeter=0;" edge="1" parent="4zkm5lvDwpXeIRacTq98-1" source="4zkm5lvDwpXeIRacTq98-26" target="4zkm5lvDwpXeIRacTq98-27">
          <mxGeometry width="50" height="50" relative="1" as="geometry">
            <mxPoint x="677" y="-78.00000000000023" as="sourcePoint" />
            <mxPoint x="754" y="-76.8900000000001" as="targetPoint" />
          </mxGeometry>
        </mxCell>
        <mxCell id="4zkm5lvDwpXeIRacTq98-29" value="" style="endArrow=classic;html=1;rounded=0;strokeColor=#E6E6E6;strokeWidth=3;entryX=0;entryY=0.5;entryDx=0;entryDy=0;entryPerimeter=0;exitX=1;exitY=0.5;exitDx=0;exitDy=0;exitPerimeter=0;" edge="1" parent="4zkm5lvDwpXeIRacTq98-1" source="4zkm5lvDwpXeIRacTq98-22" target="4zkm5lvDwpXeIRacTq98-26">
          <mxGeometry width="50" height="50" relative="1" as="geometry">
            <mxPoint x="773" y="243" as="sourcePoint" />
            <mxPoint x="764" y="-66.8900000000001" as="targetPoint" />
          </mxGeometry>
        </mxCell>
        <mxCell id="4zkm5lvDwpXeIRacTq98-30" value="" style="shape=image;verticalLabelPosition=bottom;labelBackgroundColor=default;verticalAlign=top;aspect=fixed;imageAspect=0;image=data:image/png,iVBORw0KGgoAAAANSUhEUgAAAPMAAAA1CAYAAACUR92WAAABXmlDQ1BJQ0MgUHJvZmlsZQAAKJFtkL9LQlEcxY9lWFrQL2oo4m2RvKSeQlOBOUTQ8LCibHs+TcsfXZ4vIojW1qbaI/oLAhscGoIg2oKKaGxoD1xKXudqpVYXLt8Ph/P93u89QEu7IUTWDSCXt63o3KyyGltTPK/owAC6MAWfYRZEWNcXaMF3bT7le7hkvRuXs6YHH6/6/P7rkSF9/7x0MvnX33S8iWTBZP3gDZjCsgGXStZ3bCF5j9xvcSnyoeRUjU8lx2t8UfUsRSPkW3K3mTYS5GeyGm/QUw2cy26bXzvI7TuT+eVF1l7eYYRhIgkLCqLQmMIE8/nfH6r6I9iCwC47NpBCGjY7w1QEspyjYB55TgxAJWucpiEkc/6dX11LHABBP5/y1rXNF6B0DPTc1LXRDL8yA1zGhGEZP6m6yu7CelCrsa8ItB05ztsK4BkDKg+O8150nMoZ0PrE3vInJHJhYoF6OHsAAABWZVhJZk1NACoAAAAIAAGHaQAEAAAAAQAAABoAAAAAAAOShgAHAAAAEgAAAESgAgAEAAAAAQAAAPOgAwAEAAAAAQAAADUAAAAAQVNDSUkAAABTY3JlZW5zaG90TD2eRwAAAdVpVFh0WE1MOmNvbS5hZG9iZS54bXAAAAAAADx4OnhtcG1ldGEgeG1sbnM6eD0iYWRvYmU6bnM6bWV0YS8iIHg6eG1wdGs9IlhNUCBDb3JlIDYuMC4wIj4KICAgPHJkZjpSREYgeG1sbnM6cmRmPSJodHRwOi8vd3d3LnczLm9yZy8xOTk5LzAyLzIyLXJkZi1zeW50YXgtbnMjIj4KICAgICAgPHJkZjpEZXNjcmlwdGlvbiByZGY6YWJvdXQ9IiIKICAgICAgICAgICAgeG1sbnM6ZXhpZj0iaHR0cDovL25zLmFkb2JlLmNvbS9leGlmLzEuMC8iPgogICAgICAgICA8ZXhpZjpQaXhlbFlEaW1lbnNpb24+NTM8L2V4aWY6UGl4ZWxZRGltZW5zaW9uPgogICAgICAgICA8ZXhpZjpQaXhlbFhEaW1lbnNpb24+MjQzPC9leGlmOlBpeGVsWERpbWVuc2lvbj4KICAgICAgICAgPGV4aWY6VXNlckNvbW1lbnQ+U2NyZWVuc2hvdDwvZXhpZjpVc2VyQ29tbWVudD4KICAgICAgPC9yZGY6RGVzY3JpcHRpb24+CiAgIDwvcmRmOlJERj4KPC94OnhtcG1ldGE+CocXVjwAABkzSURBVHgB7V0LmE1V+3/3OWcGuY5LKGKMawqJkhSVWyGRrnr8kb4uVERJ+mrk1uWpvu6EP0KoHpMovlSmlNyJkkuGVAwlcjcz5+zv/a2ZdWbtffY5Z5/bYOz3mTN777XX9d3rXe9lvWstbc2aNfqff/5JF198MZ1//vkUEfi8RMePkL5jHfmWzSXf1hWk5+aS5nETuZKMWfnySPfmkZZUgtxN25PW9i7SqqcRlSrLcV3GuAVPr7/+Bu3cudPwzuv1Us+ePahdu3aGcOfBwcC5igG3201JSUmk9e3XTwcSdF2nLjfdRN26dbOFE1/mHPIufoco9yRpPh+RpnE6/OwAF8nl6W4PUZlK5Ok5jLQm7QIS+jjf5cuX05w5PFDoPipXtiwNGDCA0tLSuDi7ZQVk6wQ4GCh2GChRogRp/fr3F8SM1pUuXZpefOGF4IRy4gj5FrxOvnVLiE4eZY7KHDgewFybylcjV6vu5OrQl8iTbMgVRH3y5EkqVapU8LoZUjgPDgbOLQx4PB5i1lgIeXlMVEHAt2I+eTNeJS33RH6MeBEycnNxNY78Rb7/vku+VQvI3WOogVO7WAw/77zzgtTMCXYwEIiBrKws+umnn2jTpk107NgxGjt2bGCkYhQChucnZojZ5cuVC+R8Rw6Sd8pj5Mv6gXVhkx4cb2RggPhnP+VNGUruK7qR6/YRRKxjO+BgwC4GcnJy6M4776TDhw8TRE8A7EHFHUC/rlMsvuacOkUVypWn9PR0Q5v17CzKHXIV6bs3J56QlZI11qV9axdR3hPXMMc+qLxxbh0MhMcAJMySJUsGMqbwSc/aGCBmz5tvvklovFmM1X9cRt6pj5PGRB4NwHLNVq6CpBqBQCMGNnLlju5Onkcnk3Zh/YiTOwkcDJxLGPDAqGQG39rF5J09ijSm9qDAMrruzSGtZFkmtAZElWsQpVQjLaUqG7DYTF6CdVx3Euk8faV5c0k/xbo2CPxgNul/7yHat5P07B0cztZwiO9BdHAt7xR533yA3EOmknZ+raDVcV44GDjXMRDILrN3knfO6PzpJhU7TNg6W521lOpE1euRq0ErcjW6gqhqHTVWwL2cQJJXNUIuz0l79mWR/tO35Nu+hmjPNtKPHWQubtLNTx2jvJd6U9KzC3kqq4KahXPvYMDBQAEGDMTsO/w35Y3qSq5SZQoRxByYktmQULMxeW57krRqqYXvYrzDRDfVaEAa/1yd7s3PbccGypv3Iun7dxO4Mmn5DiUaSwF5z3Ulz9gvHaNYjHi3Sg6dCxZRAJwQHLCPAYk3zLoUNaBsWa6BmL0THzEQsp7HnLP/S6Q1blN0BJTWjDzDZhHlnCRf5vvkXfgae41BFWDenpfDjiqTyN1tUFHjrNiWt2rVKnr//ffp119/FVM4IOSKFSvSNddcQ7169aLKlSuf9W3HHGy8Ye/evbTgkwW0ctVK+vvvv0X2wBss5126dKGGDRvGu0hDfl9//TV98OGHlM31gNX+tdeYTk6cOCEUY9/K+eSbPTpfd+VR2nXbCHJd1oHdLRUubciuiB7Ymo25Z+88HlRYD4cO7nloAmn1WyS8Ao8//jj9/PPP/nIw7YGOH66Dj0ofRatWr/JbU+GCOmPGjLDp/AUV3IwY8RRt3MhTggXebhiFx48fT02bNjVHNTxPnDiRPv74Y/+IjXnWL774gtRO/eKLL9Lq1avpyJEjghPLMpARuLT8Va9ene6//3668sorDWVYPQwaNIh27dpleIWO/eCDDxrC7DzAKNu9+y3c9sLYaP/zzz9PTZo08Qd+//339Nxzz0UtTVStWpWmTJnizy/czRtvvEEoEwQMjgi8SdxJnOFajqd5r2zVigY+9JB/iixc3nj/0ksv0dKlS/3fDjatD5loJWTMy6DZc2aL7ybLP378uOhf+XLBqePknf8Gx+eKNetAntFLyNW6x+knZLSgbAq5buhDnvTPSKvTXDiMeue/ijcJByk+yYLwkexAUrJJ57eTyCJOyZL586TyFT6enTrImQnZ0XDFBwds2bKF7rjjDsrMzCQeyAWBy84oy8EzygKX3r9/Pz399NOikyF+KOjatSvBDqLCV199pT7avv/99985rxxD/OTkZKpXr54hLNYHc9uD5bdm9Rq6++676bPPPhNz2BgYJTHJNCrexAC6ZAlhgMvakSWjhL2mVEgxfGPkIwGD9ISJE8S3xLeRdUc9AOK/d+FbLNYeJ9ed/yZ3nzFsZIpuOkoWmoirVqUmuQe9Q64O95L++xbS17NLqQOWGECnNwM43caNGwWXRQeRHQBSA34A9V5NDzEO3AJeVKfYJyEYdO7cmcqXN/YdcP6lPHBECuvWrSO1HRhYGzRoIFx6zXmpHDHYYGeOI5/NeVk9Z7JIO/LpkYKIpT0B9YHNB5JLrVq1qHbt2oIbI1zWATiGOD78yeHiapW3Oax0mdKGIDmAZmRk0Lx580SZhgjKg4flViaMpeR5YvZZMfXj6vIgc+hmbHEfT55m7VmYUOQwpWHn8i04s+xQEg9YGTd06FAqy4tVAHgPx4p77rmH2rZtK/TkQ4cOCRFy8uTJwhdejvyIj44JAnv55ZfpqaeeQpAltG/fnj755BP/O3CwhQsW0HXt2vnDwt2gbhmsJqgAIhk8eLAaJO7LlClDl156KdtJ87kT0v68ebMhHvCRllaXvFjlZ4KqYVYKrlixgsaMHi1wJZOijNtvv13gTlVd8H7r1q307LPPCjFY4g8E+eijj/KCoTn+QVTmZb5CPFcBaxKg3oErC4Mxv0T5Mm85KOPZo2fOJs+QSUSVLlTzOKPvtUZXkbsvSxBH2PBQrtIZXdfTUTkpZsuyQbSjuUNK98ajR48KooTurXbGChUq0I033kidOnUStoLhw4fLLMQVHeebb74hiNOq3qpGAjGj06p1MC9jVeNb3W/fvp327tljIKA6deoILmiOD0KGnikBHR+GOxA/AB0fnHP8+HEyiu3rP//8I/AG/ElAu959910CrqwA0sN7770n0mHwk0QHnEP3hYoTCiTByjiQBMaNG+e3CUDC6tixI/Xp00fgGO8hUaGOLq1557OKkGUjtVQ2grBU4UAgBkC06MQS8MHBdSXMmjWLLr/8cgMhy3e4gmgbN25MEyZMCOAkIP4xY8YIbqGmkfcgOjOhgzOp3FrGDXaFpVYOPIgDwmzZsmWw6AkLf/VVo20GhPQCGw6DEbKsCNQD2BnUAQ04BXc9ePCgjGZ5NX87SFIbNmwQgwK+IwygQ4YMEcZU5I/4uCJ/F5U/izlb+SqWCDnXA82ju8QHPvhbb71FF15oTwqrUaMGPfPMM8LdV+aBK3TuXSartfr+rrvuChhMwK1ADHZA5WiIj3Tdu3e3kzRucWD44407/JwVg+PAgQMplXVjOwAig7gt7RFIA+4Ju0UoAMGqgGe0H/k8/MgjdNlll/nrpMbDfb6iYQ51nosdBtAZMb0EkTMSaNGiBV100UUG4oToOHnS5KDZgKurVlhEhO534MCBoGnki3379tGOHTvko7hee+21Qqc3BCb4AaK0Kt1AfL/++usjKvWSSy6hKlUKGQ4G00WLFoXMA3GsoBVPc7W/4QarV/4w65T+187N2YgBK84MK/R9990XVXMg2pkBzhLQKa0ARinohlJvRRwQRriOjHhQAdT6gyO1u+46vCoyAOFK0RaFou7Qw7F5R6RwwQUXGJJ89913QVUUQ0TlAfWxswOQQ8wK0orLrXmuF+2qWbNm5Hu8FSAE000gUBUgMv7xxx9qkOG+b9++vN6mcL4d3ByECg4dCn74odBJBvEwIFzevHmoJHF/Bx3fPAV36623RlUOnFJUDg/xG952kQDSmO0QVunj7+dmVYoTdtoxULdu3ajrAKMXjD6q6IwwiMTBFv6D2M9nETM7O9tfLvS/H3/8kSC6WwEcW1RRHEQARw2rlX1W6eMVhh1KIBFIkReSAogb7Y0UUHe0Q1q1gQPp/mk3L/OsQ7B0DjEHw0wxCw9ngQ3X3EaNLqbffvvN38HRObGbRzDAe3BnTIlJsRkDQCY7kAQj5kmTJglOLIkIRIBpsqIGs3QAAxSmglQOa7dOsGyj3RLyiTm0RVvGlVe7dg5HzJYYK+ZXyRmibWaNGhcGdGaVU1vl26ZNG6picsr48ssvA1w+kRZ64dy5c/2DBcJA1BFv/4yEMQL2DzMDOCymgCL9qYQs82TPd3lr65qSkmIrnkPMttDkRFJdKyU27AwQba6+WkYXV3A3qznn3bt3G1xBwQ3htCK5tCGTBD/ABdVO26KpBtqFvfYSAYX8PxG5O3kWGwwcP5a/UENtEAwz4eAm3osdnk9S7wWngkXXbFBCGERQCXBrxDLM0wEe08aVUBOeeOIJ2/PkoeqMwQxTVokAh5gTgFXVUUBmb2Vhlu/OhuuuX3cFcCvp5x2q/pijhrfZZsVfGv7L0LelHzJEbCwikIAOX79+fflY5NeKLNbu3Jnlby+4NJw1YNQ7k8ERsxPwdTy8eaFZTIPoFilYDQqR5iHjQ7yLBeAvrYq8qFu4dd2yPNVXGmGYbsK6cAlYMy5XByEMdcVChtMFddLqGIpGfc6GwdghZsNni89DCV6HrFo+Qdh7eOFApPBPCGtxpHnBPTFaQGc2D0bgplj+ZwcgVsr11IgPcRpLKuVghd1OVJ0c+dqZV7VTdjRxYG1Xvx/aH+nccDTlxprGIeZYMWiRHitnVAAxf/vtt2pQ2Htwgi3MscwcPmzCIBHAWaMFELLZcg1vKDhE2AFYgPv3728gEBC35MZr1641ZHNDGLdFQ+QEPGAqSNXf8Q3eeeedBJQU3ywdYo4vPkVucNBQR3Z0BnCiSEQ1cFIrQrYKs9MErJpCHaIBLLZQAW0DcUZSl5tvvjlATMdySrTzl19+8WcPIr8uRvdNVR1AHcOtVPIXXnADY53quok8oOdHupTTnG+inx1iTgCGoUuqHQpFwIprXkAQrGgQ/SuvvGJwNkBciKVqJwuW3iocFtlI9rqSecBHGR1ZJVy0LVKCg7FLnTNGHjNmzBTb8EinEpQJYxlWa8UCWsGOrjIPqDhSpJdhoa74VvAtV9PA+PX222/HxaIdquxY3jnEHAv2gqSFlddMzOiwWH5o9vk1ZwHj0LRp0wwbCZrjRPsMN8LBg4fYlhDgijly5EiDPov6YUMA8/ZA4eoEfDz88MMGYjhw4C9awvtkSZEWHB/um7EAyklKMk7SYHCE91ok0KNHjwADH9w8scY5EgkrkjJjjes6q89yOhDc0T9WxMSSHsYczKOqIzvyg5iGnSRDARaeY78nORjIK9LITh8qfah3yGv79m3CNdGsA5vToa5WojT0X+x8EQ00a9aMqlWr5k8KPKkrrzBdFeuUFHCkGtNQGObDZ86c6S/X7s0jvH5Y6vVIA/xlZmaSeb22nfwwmKiql500kcbx6HtYXynBh2zVvjTStKc1Ps7CSnSdYyEe7K21ePHiACvw+vXrxbQLuBvWF0P8xE6Uy5YtExZTjProNPjw2IsLe0eplmC1c0XyAWDUgbgMcRFEg/qBcMCBsFhChmMb2fnz54sN6NSBBGVBqoj1aFRYirEUUhXbkTc4PogkWjUCeQCQb9tr29K8jHmGwW/58uV07733UqeOnaha9WrCoAd8YAueYItFsLvJgAEDxDZAsi8gf6z8wtZJUAewxhlrjaFCQNeGlR8DJUR7bGUMS/1ff/0lwrD9sapS5Nc4fv89WoOWlDe6B7luHkiupu3jl3MCc/J9PYfw8zyTkcBS8nXUaAvAx8d+0ej86gcEgYA4sVEcOhiIFh1E7SyYCnnggQfE1I+aFnUxc3u79cNUDzou9D7kiUEDK5igEwNQB9QF9UNd8KwCCBlb4YTbs1tNY3Xfs2dPWsAb/JnbhWcQTjyg9z296fMlnwdwVagN06ZPEwMHykF7sZFCMGJGHMx3g3ixr5laZ+AHS0CnT58uBl35/WS+yBu6txwQ8Yz59EROuQmd2XVlN/JOGkq+xZPRRNTnzAQ+0cI3Zyx5PxhD7juwQ6Sxw8W70rk5uYYs5YcxBIZ4wA4Z2GrGigAlAeODy46ADw4REdz4lltuETnjvQrh1gOrcdV71AFb72D1D7ggykId0EHxQzm4yrrItEhXqWIlwmmh2MUzVsBifasBoXbt2gHicbRlQRXAxv1opwpoL74h2oofnrHRXigAPvr160ePPfaYkKLM3xL5QYyXeUo84juq/QV1gcSTSMgn5o48zcD7Uvv+O5HyRnYk/UzTRbEd8N4dlPvYVeRbySc1XHwtaQ2uSCReRN45pk3YERipSx+mZDBHKf2YQUT4SZDP6FjYm2vq1Klih0z53qz/RTrNIvOR1969e4vTD6qy7ooyJWHL97I+CAdx33bbbTT9veliz2oZJ9ZramqqIQuIptGcemHIxPSAXUIxIwBiDNZGtD87294aZSzFhNcarNzym8h8rb6nxCMIGuI3ODwkm3CAOpnBKswcB8+Fx9NsZI+cSYP5XKeS3Nl4YXazTuT+v7FWaYo27CSfADl5GOm/rOa9kd18BOxxSnqaR7jqdRJeD3wAVV/Fx/v0008DRFA7FcGIDt0JujH0UizCT+YRvTbrstC74CUFfdH84cA5UK4EDApyYJBh5uvKlSvFRnwgRglY8PAQH5UiAXnC+IRN6zD/fJDnofk8E95rK4Wa884eWOQAi7XsuDJdPK6QEFQOl5aWJs5Kikfe5jwwUOzatUsYFeXOKBiQGzVqJPAOg1w4fJrzhBoEvRing6xft55+4T3LcnLyDwdISkqmmqxLN2jYQFj9sXwR5ZklHnOe8hnqj9kuYuebI72fmPHg+2A8+VZ8jFuWtrkD8dlOWt2W5L51mDh7Of9F0fzXs7P4fKlX2AS8np11WdwtGLFc3fhwu+t6F0kl4IkkV/ugwFIsvn34wQdFUnYshdgh5ljyjyUtrMrYPkh2bhDGsGHDCJzUgdgwYFDIXHy6oo85NB3nPZYx8c4nMeqbl1HuhiWkNbyKD5JrT65LWG9K1Ba3+38l3w9fkc518O3kvaCSC1apgJAhml7UmFxtesXWYpupMYqbuWR1ZVrFZjZONAUDMKJhLbMkZLyCahGpA4qSpXOrYMBAzFSqLHnGfE55T93Ae6MWGgYEUWWtJ9+OteSdlc5nNNcl1xVdSePjV7UUnjcswzshlIxg50IQ5okjpONEikP7SN++lnzfZ5B+mF0YPcliIPETMiqL+FyOZyD7xyaFX0OrtC/qW+zdDGOGCnb3m1bTOPf5GIBYjeNxIJ7KQRKiPgyEKnE7+IoeA8beWpCP58m5lJd+Ez+ZlHHm1hqI9tBe8n0+CZODLI3nsh57krTS5chVqwlpVeuQVond8crwmUaCMDmPUyeYeI8RRGf9T+a+PDDozPVBsJpCnNDXLeG8cjwNVXh+kWWcOAdiYYRKzOh4oaYw4lx8scoOxiAcaYvteKSFF2GYY4d+7kB8MGBJzFSuMrmHM0GPu5U0d6ERJaBIttRprhLMTfO5pb5rI+EXfHqLCRt/TMAqEQfkqwacl0KeJ+eoIQm/h9vepk2b/B0PBcIo4YiD0aEeFvqPPvrIgE8Q9dmwEim6Fp+eVGJqyqporWoqJaV/SlS5Zr4xzCqSOQy6rfhxttC5A3783sztzXnIZx65tbpX8OmUs5jLV5ChCb/iUPIRI/igee5sKmBKx7x3tPreuQ/EACzJo0aNCtioDxZbuIra3aguMGcnxAoD1pxZxkypzlxxLnnnjiN99UIZmvCrzoTkans3uW96kB2SQ1cx1srAKIO5W7j24SBteESpUzrIHzoePJccsIcBEDGWN+KgNEztqfiE7nw1b/IHN1IH4ouB8JTCc7vuu/5Nessu5J3Jk96HeMcKDksIwNBVtTYlDeApqcqsdycYQMSYfgKHwFweuLHa8VA8wrCfc8WKFRNcm+KRPeat09PTxdw4cCeNXWgd7A4NGzYUc+DFo7VnVivCE3NBfbW6zcnz7ELSt6yi3LfuJxdPjgsxOh7t4UOw9bxT5ElnB3ycEw1RvQgAYjNc/9S5ZLVYN1uzZ/DphXLjOfWdc2+NAeAS0o7ZEQMGLxAyDmt3IDEYMBAzPgKMP5jIT01NNZxgJ4qHNbtRK0r+z2rS/9hGvq9mkm/dIsGpQxrKLOque/OE9qy17kWu1reQVrORRazEBoELY+WL6p8LMRA/+Ee3a9cu5lU8iW1B8NzxDVWuCGIqCgDBwuNJLQ86Mtw1sdJIrVNR1OdcKQN4FR5gQDYWiW/dslW0HfN+6NDYWK3zjZ1DHy59/DDpOzaQ7/efiXZvJp0dP+jgXp6u4ukoFUqWYq57Ec9RpxJVq0Ouei1ILGFUpqbU6EV1j1VNWM2C/awwgDVp0pRat77KMC1VVHWJVznYhGDbtm2G+Vss0bN7zEms9cAmDAsXLhQrszp06CD8u3EIuwOJw4BQaXjKRc+YlxF0JwaMsPf96z4hjkZclaPsScYDA5xRHDh3MABj4ooVK5mIe0XXb84dVMWtpfCJ0HiNpz71/6cGTMWopTS7rBlhOZ8DDgYcDJyZGBAGXKziAYsOBWtWrwn12nnnYMDBwGnEANRi6Mz/A1LVw+ZtRZSpAAAAAElFTkSuQmCC;" vertex="1" parent="4zkm5lvDwpXeIRacTq98-1">
          <mxGeometry x="1088" y="459.99999999999994" width="80" height="17.45" as="geometry" />
        </mxCell>
        <mxCell id="4zkm5lvDwpXeIRacTq98-31" value="" style="sketch=0;pointerEvents=1;shadow=0;dashed=0;html=1;strokeColor=none;fillColor=#E6E6E6;aspect=fixed;labelPosition=center;verticalLabelPosition=bottom;verticalAlign=top;align=center;outlineConnect=0;shape=mxgraph.vvd.nsx_dashboard;" vertex="1" parent="4zkm5lvDwpXeIRacTq98-1">
          <mxGeometry x="1101" y="487" width="50" height="46.5" as="geometry" />
        </mxCell>
        <mxCell id="4zkm5lvDwpXeIRacTq98-32" value="" style="endArrow=classic;html=1;rounded=0;strokeColor=#E6E6E6;strokeWidth=3;entryX=1.002;entryY=0.579;entryDx=0;entryDy=0;entryPerimeter=0;" edge="1" parent="4zkm5lvDwpXeIRacTq98-1" source="4zkm5lvDwpXeIRacTq98-34" target="4zkm5lvDwpXeIRacTq98-36">
          <mxGeometry width="50" height="50" relative="1" as="geometry">
            <mxPoint x="677" y="-78.00000000000023" as="sourcePoint" />
            <mxPoint x="754" y="-76.8900000000001" as="targetPoint" />
          </mxGeometry>
        </mxCell>
        <mxCell id="4zkm5lvDwpXeIRacTq98-33" value="" style="endArrow=classic;html=1;rounded=0;strokeColor=#E6E6E6;strokeWidth=3;exitX=0.5;exitY=0;exitDx=0;exitDy=0;entryX=0.5;entryY=1;entryDx=0;entryDy=0;entryPerimeter=0;" edge="1" parent="4zkm5lvDwpXeIRacTq98-1" source="4zkm5lvDwpXeIRacTq98-30" target="4zkm5lvDwpXeIRacTq98-27">
          <mxGeometry width="50" height="50" relative="1" as="geometry">
            <mxPoint x="687" y="-68.00000000000023" as="sourcePoint" />
            <mxPoint x="764" y="-66.8900000000001" as="targetPoint" />
          </mxGeometry>
        </mxCell>
        <mxCell id="4zkm5lvDwpXeIRacTq98-34" value="" style="sketch=0;pointerEvents=1;shadow=0;dashed=0;html=1;strokeColor=none;fillColor=#E6E6E6;aspect=fixed;labelPosition=center;verticalLabelPosition=bottom;verticalAlign=top;align=center;outlineConnect=0;shape=mxgraph.vvd.nsx_dashboard;" vertex="1" parent="4zkm5lvDwpXeIRacTq98-1">
          <mxGeometry x="1105" y="732" width="50" height="46.5" as="geometry" />
        </mxCell>
        <mxCell id="4zkm5lvDwpXeIRacTq98-35" value="" style="shape=image;verticalLabelPosition=bottom;labelBackgroundColor=default;verticalAlign=top;aspect=fixed;imageAspect=0;image=data:image/png,iVBORw0KGgoAAAANSUhEUgAAAPMAAAA1CAYAAACUR92WAAABXmlDQ1BJQ0MgUHJvZmlsZQAAKJFtkL9LQlEcxY9lWFrQL2oo4m2RvKSeQlOBOUTQ8LCibHs+TcsfXZ4vIojW1qbaI/oLAhscGoIg2oKKaGxoD1xKXudqpVYXLt8Ph/P93u89QEu7IUTWDSCXt63o3KyyGltTPK/owAC6MAWfYRZEWNcXaMF3bT7le7hkvRuXs6YHH6/6/P7rkSF9/7x0MvnX33S8iWTBZP3gDZjCsgGXStZ3bCF5j9xvcSnyoeRUjU8lx2t8UfUsRSPkW3K3mTYS5GeyGm/QUw2cy26bXzvI7TuT+eVF1l7eYYRhIgkLCqLQmMIE8/nfH6r6I9iCwC47NpBCGjY7w1QEspyjYB55TgxAJWucpiEkc/6dX11LHABBP5/y1rXNF6B0DPTc1LXRDL8yA1zGhGEZP6m6yu7CelCrsa8ItB05ztsK4BkDKg+O8150nMoZ0PrE3vInJHJhYoF6OHsAAABWZVhJZk1NACoAAAAIAAGHaQAEAAAAAQAAABoAAAAAAAOShgAHAAAAEgAAAESgAgAEAAAAAQAAAPOgAwAEAAAAAQAAADUAAAAAQVNDSUkAAABTY3JlZW5zaG90TD2eRwAAAdVpVFh0WE1MOmNvbS5hZG9iZS54bXAAAAAAADx4OnhtcG1ldGEgeG1sbnM6eD0iYWRvYmU6bnM6bWV0YS8iIHg6eG1wdGs9IlhNUCBDb3JlIDYuMC4wIj4KICAgPHJkZjpSREYgeG1sbnM6cmRmPSJodHRwOi8vd3d3LnczLm9yZy8xOTk5LzAyLzIyLXJkZi1zeW50YXgtbnMjIj4KICAgICAgPHJkZjpEZXNjcmlwdGlvbiByZGY6YWJvdXQ9IiIKICAgICAgICAgICAgeG1sbnM6ZXhpZj0iaHR0cDovL25zLmFkb2JlLmNvbS9leGlmLzEuMC8iPgogICAgICAgICA8ZXhpZjpQaXhlbFlEaW1lbnNpb24+NTM8L2V4aWY6UGl4ZWxZRGltZW5zaW9uPgogICAgICAgICA8ZXhpZjpQaXhlbFhEaW1lbnNpb24+MjQzPC9leGlmOlBpeGVsWERpbWVuc2lvbj4KICAgICAgICAgPGV4aWY6VXNlckNvbW1lbnQ+U2NyZWVuc2hvdDwvZXhpZjpVc2VyQ29tbWVudD4KICAgICAgPC9yZGY6RGVzY3JpcHRpb24+CiAgIDwvcmRmOlJERj4KPC94OnhtcG1ldGE+CocXVjwAABkzSURBVHgB7V0LmE1V+3/3OWcGuY5LKGKMawqJkhSVWyGRrnr8kb4uVERJ+mrk1uWpvu6EP0KoHpMovlSmlNyJkkuGVAwlcjcz5+zv/a2ZdWbtffY5Z5/bYOz3mTN777XX9d3rXe9lvWstbc2aNfqff/5JF198MZ1//vkUEfi8RMePkL5jHfmWzSXf1hWk5+aS5nETuZKMWfnySPfmkZZUgtxN25PW9i7SqqcRlSrLcV3GuAVPr7/+Bu3cudPwzuv1Us+ePahdu3aGcOfBwcC5igG3201JSUmk9e3XTwcSdF2nLjfdRN26dbOFE1/mHPIufoco9yRpPh+RpnE6/OwAF8nl6W4PUZlK5Ok5jLQm7QIS+jjf5cuX05w5PFDoPipXtiwNGDCA0tLSuDi7ZQVk6wQ4GCh2GChRogRp/fr3F8SM1pUuXZpefOGF4IRy4gj5FrxOvnVLiE4eZY7KHDgewFybylcjV6vu5OrQl8iTbMgVRH3y5EkqVapU8LoZUjgPDgbOLQx4PB5i1lgIeXlMVEHAt2I+eTNeJS33RH6MeBEycnNxNY78Rb7/vku+VQvI3WOogVO7WAw/77zzgtTMCXYwEIiBrKws+umnn2jTpk107NgxGjt2bGCkYhQChucnZojZ5cuVC+R8Rw6Sd8pj5Mv6gXVhkx4cb2RggPhnP+VNGUruK7qR6/YRRKxjO+BgwC4GcnJy6M4776TDhw8TRE8A7EHFHUC/rlMsvuacOkUVypWn9PR0Q5v17CzKHXIV6bs3J56QlZI11qV9axdR3hPXMMc+qLxxbh0MhMcAJMySJUsGMqbwSc/aGCBmz5tvvklovFmM1X9cRt6pj5PGRB4NwHLNVq6CpBqBQCMGNnLlju5Onkcnk3Zh/YiTOwkcDJxLGPDAqGQG39rF5J09ijSm9qDAMrruzSGtZFkmtAZElWsQpVQjLaUqG7DYTF6CdVx3Euk8faV5c0k/xbo2CPxgNul/7yHat5P07B0cztZwiO9BdHAt7xR533yA3EOmknZ+raDVcV44GDjXMRDILrN3knfO6PzpJhU7TNg6W521lOpE1euRq0ErcjW6gqhqHTVWwL2cQJJXNUIuz0l79mWR/tO35Nu+hmjPNtKPHWQubtLNTx2jvJd6U9KzC3kqq4KahXPvYMDBQAEGDMTsO/w35Y3qSq5SZQoRxByYktmQULMxeW57krRqqYXvYrzDRDfVaEAa/1yd7s3PbccGypv3Iun7dxO4Mmn5DiUaSwF5z3Ulz9gvHaNYjHi3Sg6dCxZRAJwQHLCPAYk3zLoUNaBsWa6BmL0THzEQsp7HnLP/S6Q1blN0BJTWjDzDZhHlnCRf5vvkXfgae41BFWDenpfDjiqTyN1tUFHjrNiWt2rVKnr//ffp119/FVM4IOSKFSvSNddcQ7169aLKlSuf9W3HHGy8Ye/evbTgkwW0ctVK+vvvv0X2wBss5126dKGGDRvGu0hDfl9//TV98OGHlM31gNX+tdeYTk6cOCEUY9/K+eSbPTpfd+VR2nXbCHJd1oHdLRUubciuiB7Ymo25Z+88HlRYD4cO7nloAmn1WyS8Ao8//jj9/PPP/nIw7YGOH66Dj0ofRatWr/JbU+GCOmPGjLDp/AUV3IwY8RRt3MhTggXebhiFx48fT02bNjVHNTxPnDiRPv74Y/+IjXnWL774gtRO/eKLL9Lq1avpyJEjghPLMpARuLT8Va9ene6//3668sorDWVYPQwaNIh27dpleIWO/eCDDxrC7DzAKNu9+y3c9sLYaP/zzz9PTZo08Qd+//339Nxzz0UtTVStWpWmTJnizy/czRtvvEEoEwQMjgi8SdxJnOFajqd5r2zVigY+9JB/iixc3nj/0ksv0dKlS/3fDjatD5loJWTMy6DZc2aL7ybLP378uOhf+XLBqePknf8Gx+eKNetAntFLyNW6x+knZLSgbAq5buhDnvTPSKvTXDiMeue/ijcJByk+yYLwkexAUrJJ57eTyCJOyZL586TyFT6enTrImQnZ0XDFBwds2bKF7rjjDsrMzCQeyAWBy84oy8EzygKX3r9/Pz399NOikyF+KOjatSvBDqLCV199pT7avv/99985rxxD/OTkZKpXr54hLNYHc9uD5bdm9Rq6++676bPPPhNz2BgYJTHJNCrexAC6ZAlhgMvakSWjhL2mVEgxfGPkIwGD9ISJE8S3xLeRdUc9AOK/d+FbLNYeJ9ed/yZ3nzFsZIpuOkoWmoirVqUmuQe9Q64O95L++xbS17NLqQOWGECnNwM43caNGwWXRQeRHQBSA34A9V5NDzEO3AJeVKfYJyEYdO7cmcqXN/YdcP6lPHBECuvWrSO1HRhYGzRoIFx6zXmpHDHYYGeOI5/NeVk9Z7JIO/LpkYKIpT0B9YHNB5JLrVq1qHbt2oIbI1zWATiGOD78yeHiapW3Oax0mdKGIDmAZmRk0Lx580SZhgjKg4flViaMpeR5YvZZMfXj6vIgc+hmbHEfT55m7VmYUOQwpWHn8i04s+xQEg9YGTd06FAqy4tVAHgPx4p77rmH2rZtK/TkQ4cOCRFy8uTJwhdejvyIj44JAnv55ZfpqaeeQpAltG/fnj755BP/O3CwhQsW0HXt2vnDwt2gbhmsJqgAIhk8eLAaJO7LlClDl156KdtJ87kT0v68ebMhHvCRllaXvFjlZ4KqYVYKrlixgsaMHi1wJZOijNtvv13gTlVd8H7r1q307LPPCjFY4g8E+eijj/KCoTn+QVTmZb5CPFcBaxKg3oErC4Mxv0T5Mm85KOPZo2fOJs+QSUSVLlTzOKPvtUZXkbsvSxBH2PBQrtIZXdfTUTkpZsuyQbSjuUNK98ajR48KooTurXbGChUq0I033kidOnUStoLhw4fLLMQVHeebb74hiNOq3qpGAjGj06p1MC9jVeNb3W/fvp327tljIKA6deoILmiOD0KGnikBHR+GOxA/AB0fnHP8+HEyiu3rP//8I/AG/ElAu959910CrqwA0sN7770n0mHwk0QHnEP3hYoTCiTByjiQBMaNG+e3CUDC6tixI/Xp00fgGO8hUaGOLq1557OKkGUjtVQ2grBU4UAgBkC06MQS8MHBdSXMmjWLLr/8cgMhy3e4gmgbN25MEyZMCOAkIP4xY8YIbqGmkfcgOjOhgzOp3FrGDXaFpVYOPIgDwmzZsmWw6AkLf/VVo20GhPQCGw6DEbKsCNQD2BnUAQ04BXc9ePCgjGZ5NX87SFIbNmwQgwK+IwygQ4YMEcZU5I/4uCJ/F5U/izlb+SqWCDnXA82ju8QHPvhbb71FF15oTwqrUaMGPfPMM8LdV+aBK3TuXSartfr+rrvuChhMwK1ADHZA5WiIj3Tdu3e3kzRucWD44407/JwVg+PAgQMplXVjOwAig7gt7RFIA+4Ju0UoAMGqgGe0H/k8/MgjdNlll/nrpMbDfb6iYQ51nosdBtAZMb0EkTMSaNGiBV100UUG4oToOHnS5KDZgKurVlhEhO534MCBoGnki3379tGOHTvko7hee+21Qqc3BCb4AaK0Kt1AfL/++usjKvWSSy6hKlUKGQ4G00WLFoXMA3GsoBVPc7W/4QarV/4w65T+187N2YgBK84MK/R9990XVXMg2pkBzhLQKa0ARinohlJvRRwQRriOjHhQAdT6gyO1u+46vCoyAOFK0RaFou7Qw7F5R6RwwQUXGJJ89913QVUUQ0TlAfWxswOQQ8wK0orLrXmuF+2qWbNm5Hu8FSAE000gUBUgMv7xxx9qkOG+b9++vN6mcL4d3ByECg4dCn74odBJBvEwIFzevHmoJHF/Bx3fPAV36623RlUOnFJUDg/xG952kQDSmO0QVunj7+dmVYoTdtoxULdu3ajrAKMXjD6q6IwwiMTBFv6D2M9nETM7O9tfLvS/H3/8kSC6WwEcW1RRHEQARw2rlX1W6eMVhh1KIBFIkReSAogb7Y0UUHe0Q1q1gQPp/mk3L/OsQ7B0DjEHw0wxCw9ngQ3X3EaNLqbffvvN38HRObGbRzDAe3BnTIlJsRkDQCY7kAQj5kmTJglOLIkIRIBpsqIGs3QAAxSmglQOa7dOsGyj3RLyiTm0RVvGlVe7dg5HzJYYK+ZXyRmibWaNGhcGdGaVU1vl26ZNG6picsr48ssvA1w+kRZ64dy5c/2DBcJA1BFv/4yEMQL2DzMDOCymgCL9qYQs82TPd3lr65qSkmIrnkPMttDkRFJdKyU27AwQba6+WkYXV3A3qznn3bt3G1xBwQ3htCK5tCGTBD/ABdVO26KpBtqFvfYSAYX8PxG5O3kWGwwcP5a/UENtEAwz4eAm3osdnk9S7wWngkXXbFBCGERQCXBrxDLM0wEe08aVUBOeeOIJ2/PkoeqMwQxTVokAh5gTgFXVUUBmb2Vhlu/OhuuuX3cFcCvp5x2q/pijhrfZZsVfGv7L0LelHzJEbCwikIAOX79+fflY5NeKLNbu3Jnlby+4NJw1YNQ7k8ERsxPwdTy8eaFZTIPoFilYDQqR5iHjQ7yLBeAvrYq8qFu4dd2yPNVXGmGYbsK6cAlYMy5XByEMdcVChtMFddLqGIpGfc6GwdghZsNni89DCV6HrFo+Qdh7eOFApPBPCGtxpHnBPTFaQGc2D0bgplj+ZwcgVsr11IgPcRpLKuVghd1OVJ0c+dqZV7VTdjRxYG1Xvx/aH+nccDTlxprGIeZYMWiRHitnVAAxf/vtt2pQ2Htwgi3MscwcPmzCIBHAWaMFELLZcg1vKDhE2AFYgPv3728gEBC35MZr1641ZHNDGLdFQ+QEPGAqSNXf8Q3eeeedBJQU3ywdYo4vPkVucNBQR3Z0BnCiSEQ1cFIrQrYKs9MErJpCHaIBLLZQAW0DcUZSl5tvvjlATMdySrTzl19+8WcPIr8uRvdNVR1AHcOtVPIXXnADY53quok8oOdHupTTnG+inx1iTgCGoUuqHQpFwIprXkAQrGgQ/SuvvGJwNkBciKVqJwuW3iocFtlI9rqSecBHGR1ZJVy0LVKCg7FLnTNGHjNmzBTb8EinEpQJYxlWa8UCWsGOrjIPqDhSpJdhoa74VvAtV9PA+PX222/HxaIdquxY3jnEHAv2gqSFlddMzOiwWH5o9vk1ZwHj0LRp0wwbCZrjRPsMN8LBg4fYlhDgijly5EiDPov6YUMA8/ZA4eoEfDz88MMGYjhw4C9awvtkSZEWHB/um7EAyklKMk7SYHCE91ok0KNHjwADH9w8scY5EgkrkjJjjes6q89yOhDc0T9WxMSSHsYczKOqIzvyg5iGnSRDARaeY78nORjIK9LITh8qfah3yGv79m3CNdGsA5vToa5WojT0X+x8EQ00a9aMqlWr5k8KPKkrrzBdFeuUFHCkGtNQGObDZ86c6S/X7s0jvH5Y6vVIA/xlZmaSeb22nfwwmKiql500kcbx6HtYXynBh2zVvjTStKc1Ps7CSnSdYyEe7K21ePHiACvw+vXrxbQLuBvWF0P8xE6Uy5YtExZTjProNPjw2IsLe0eplmC1c0XyAWDUgbgMcRFEg/qBcMCBsFhChmMb2fnz54sN6NSBBGVBqoj1aFRYirEUUhXbkTc4PogkWjUCeQCQb9tr29K8jHmGwW/58uV07733UqeOnaha9WrCoAd8YAueYItFsLvJgAEDxDZAsi8gf6z8wtZJUAewxhlrjaFCQNeGlR8DJUR7bGUMS/1ff/0lwrD9sapS5Nc4fv89WoOWlDe6B7luHkiupu3jl3MCc/J9PYfw8zyTkcBS8nXUaAvAx8d+0ej86gcEgYA4sVEcOhiIFh1E7SyYCnnggQfE1I+aFnUxc3u79cNUDzou9D7kiUEDK5igEwNQB9QF9UNd8KwCCBlb4YTbs1tNY3Xfs2dPWsAb/JnbhWcQTjyg9z296fMlnwdwVagN06ZPEwMHykF7sZFCMGJGHMx3g3ixr5laZ+AHS0CnT58uBl35/WS+yBu6txwQ8Yz59EROuQmd2XVlN/JOGkq+xZPRRNTnzAQ+0cI3Zyx5PxhD7juwQ6Sxw8W70rk5uYYs5YcxBIZ4wA4Z2GrGigAlAeODy46ADw4REdz4lltuETnjvQrh1gOrcdV71AFb72D1D7ggykId0EHxQzm4yrrItEhXqWIlwmmh2MUzVsBifasBoXbt2gHicbRlQRXAxv1opwpoL74h2oofnrHRXigAPvr160ePPfaYkKLM3xL5QYyXeUo84juq/QV1gcSTSMgn5o48zcD7Uvv+O5HyRnYk/UzTRbEd8N4dlPvYVeRbySc1XHwtaQ2uSCReRN45pk3YERipSx+mZDBHKf2YQUT4SZDP6FjYm2vq1Klih0z53qz/RTrNIvOR1969e4vTD6qy7ooyJWHL97I+CAdx33bbbTT9veliz2oZJ9ZramqqIQuIptGcemHIxPSAXUIxIwBiDNZGtD87294aZSzFhNcarNzym8h8rb6nxCMIGuI3ODwkm3CAOpnBKswcB8+Fx9NsZI+cSYP5XKeS3Nl4YXazTuT+v7FWaYo27CSfADl5GOm/rOa9kd18BOxxSnqaR7jqdRJeD3wAVV/Fx/v0008DRFA7FcGIDt0JujH0UizCT+YRvTbrstC74CUFfdH84cA5UK4EDApyYJBh5uvKlSvFRnwgRglY8PAQH5UiAXnC+IRN6zD/fJDnofk8E95rK4Wa884eWOQAi7XsuDJdPK6QEFQOl5aWJs5Kikfe5jwwUOzatUsYFeXOKBiQGzVqJPAOg1w4fJrzhBoEvRing6xft55+4T3LcnLyDwdISkqmmqxLN2jYQFj9sXwR5ZklHnOe8hnqj9kuYuebI72fmPHg+2A8+VZ8jFuWtrkD8dlOWt2W5L51mDh7Of9F0fzXs7P4fKlX2AS8np11WdwtGLFc3fhwu+t6F0kl4IkkV/ugwFIsvn34wQdFUnYshdgh5ljyjyUtrMrYPkh2bhDGsGHDCJzUgdgwYFDIXHy6oo85NB3nPZYx8c4nMeqbl1HuhiWkNbyKD5JrT65LWG9K1Ba3+38l3w9fkc518O3kvaCSC1apgJAhml7UmFxtesXWYpupMYqbuWR1ZVrFZjZONAUDMKJhLbMkZLyCahGpA4qSpXOrYMBAzFSqLHnGfE55T93Ae6MWGgYEUWWtJ9+OteSdlc5nNNcl1xVdSePjV7UUnjcswzshlIxg50IQ5okjpONEikP7SN++lnzfZ5B+mF0YPcliIPETMiqL+FyOZyD7xyaFX0OrtC/qW+zdDGOGCnb3m1bTOPf5GIBYjeNxIJ7KQRKiPgyEKnE7+IoeA8beWpCP58m5lJd+Ez+ZlHHm1hqI9tBe8n0+CZODLI3nsh57krTS5chVqwlpVeuQVond8crwmUaCMDmPUyeYeI8RRGf9T+a+PDDozPVBsJpCnNDXLeG8cjwNVXh+kWWcOAdiYYRKzOh4oaYw4lx8scoOxiAcaYvteKSFF2GYY4d+7kB8MGBJzFSuMrmHM0GPu5U0d6ERJaBIttRprhLMTfO5pb5rI+EXfHqLCRt/TMAqEQfkqwacl0KeJ+eoIQm/h9vepk2b/B0PBcIo4YiD0aEeFvqPPvrIgE8Q9dmwEim6Fp+eVGJqyqporWoqJaV/SlS5Zr4xzCqSOQy6rfhxttC5A3783sztzXnIZx65tbpX8OmUs5jLV5ChCb/iUPIRI/igee5sKmBKx7x3tPreuQ/EACzJo0aNCtioDxZbuIra3aguMGcnxAoD1pxZxkypzlxxLnnnjiN99UIZmvCrzoTkans3uW96kB2SQ1cx1srAKIO5W7j24SBteESpUzrIHzoePJccsIcBEDGWN+KgNEztqfiE7nw1b/IHN1IH4ouB8JTCc7vuu/5Nessu5J3Jk96HeMcKDksIwNBVtTYlDeApqcqsdycYQMSYfgKHwFweuLHa8VA8wrCfc8WKFRNcm+KRPeat09PTxdw4cCeNXWgd7A4NGzYUc+DFo7VnVivCE3NBfbW6zcnz7ELSt6yi3LfuJxdPjgsxOh7t4UOw9bxT5ElnB3ycEw1RvQgAYjNc/9S5ZLVYN1uzZ/DphXLjOfWdc2+NAeAS0o7ZEQMGLxAyDmt3IDEYMBAzPgKMP5jIT01NNZxgJ4qHNbtRK0r+z2rS/9hGvq9mkm/dIsGpQxrKLOque/OE9qy17kWu1reQVrORRazEBoELY+WL6p8LMRA/+Ee3a9cu5lU8iW1B8NzxDVWuCGIqCgDBwuNJLQ86Mtw1sdJIrVNR1OdcKQN4FR5gQDYWiW/dslW0HfN+6NDYWK3zjZ1DHy59/DDpOzaQ7/efiXZvJp0dP+jgXp6u4ukoFUqWYq57Ec9RpxJVq0Ouei1ILGFUpqbU6EV1j1VNWM2C/awwgDVp0pRat77KMC1VVHWJVznYhGDbtm2G+Vss0bN7zEms9cAmDAsXLhQrszp06CD8u3EIuwOJw4BQaXjKRc+YlxF0JwaMsPf96z4hjkZclaPsScYDA5xRHDh3MABj4ooVK5mIe0XXb84dVMWtpfCJ0HiNpz71/6cGTMWopTS7rBlhOZ8DDgYcDJyZGBAGXKziAYsOBWtWrwn12nnnYMDBwGnEANRi6Mz/A1LVw+ZtRZSpAAAAAElFTkSuQmCC;" vertex="1" parent="4zkm5lvDwpXeIRacTq98-1">
          <mxGeometry x="1090" y="704.28" width="80" height="17.45" as="geometry" />
        </mxCell>
        <mxCell id="4zkm5lvDwpXeIRacTq98-36" value="&lt;div&gt;dirty loan&lt;br&gt;&lt;/div&gt;" style="image;aspect=fixed;html=1;points=[];align=center;fontSize=12;image=img/lib/azure2/general/Files.svg;imageBackground=none;" vertex="1" parent="4zkm5lvDwpXeIRacTq98-1">
          <mxGeometry x="908" y="698" width="86.86" height="95" as="geometry" />
        </mxCell>
        <mxCell id="4zkm5lvDwpXeIRacTq98-37" value="" style="endArrow=classic;html=1;rounded=0;fillColor=#ffe6cc;strokeColor=#d79b00;curved=1;strokeWidth=5;dashed=1;entryX=0;entryY=0.5;entryDx=0;entryDy=0;entryPerimeter=0;exitX=1;exitY=0;exitDx=0;exitDy=15;exitPerimeter=0;" edge="1" parent="4zkm5lvDwpXeIRacTq98-1" source="4zkm5lvDwpXeIRacTq98-6" target="4zkm5lvDwpXeIRacTq98-26">
          <mxGeometry width="50" height="50" relative="1" as="geometry">
            <mxPoint x="581" y="-109" as="sourcePoint" />
            <mxPoint x="-282" y="362" as="targetPoint" />
            <Array as="points">
              <mxPoint x="693" y="83" />
            </Array>
          </mxGeometry>
        </mxCell>
        <mxCell id="4zkm5lvDwpXeIRacTq98-38" value="&lt;font style=&quot;font-size: 18px;&quot;&gt;VARIANT 1&lt;/font&gt;" style="edgeLabel;html=1;align=center;verticalAlign=middle;resizable=0;points=[];" vertex="1" connectable="0" parent="4zkm5lvDwpXeIRacTq98-37">
          <mxGeometry x="-0.2315" y="-22" relative="1" as="geometry">
            <mxPoint y="-1" as="offset" />
          </mxGeometry>
        </mxCell>
      </root>
    </mxGraphModel>
  </diagram>
</mxfile>
